<svg width="40" height="41" viewBox="0 0 40 41" fill="none" xmlns="http://www.w3.org/2000/svg">
<path d="M12.8 30.915L20 23.715L27.2 30.915L30 28.115L22.8 20.915L30 13.715L27.2 10.915L20 18.115L12.8 10.915L10 13.715L17.2 20.915L10 28.115L12.8 30.915ZM20 40.915C17.2333 40.915 14.6333 40.3897 12.2 39.339C9.76667 38.2897 7.65 36.865 5.85 35.065C4.05 33.265 2.62533 31.1484 1.576 28.715C0.525334 26.2817 0 23.6817 0 20.915C0 18.1484 0.525334 15.5484 1.576 13.115C2.62533 10.6817 4.05 8.56504 5.85 6.76504C7.65 4.96504 9.76667 3.53971 12.2 2.48904C14.6333 1.43971 17.2333 0.915039 20 0.915039C22.7667 0.915039 25.3667 1.43971 27.8 2.48904C30.2333 3.53971 32.35 4.96504 34.15 6.76504C35.95 8.56504 37.3747 10.6817 38.424 13.115C39.4747 15.5484 40 18.1484 40 20.915C40 23.6817 39.4747 26.2817 38.424 28.715C37.3747 31.1484 35.95 33.265 34.15 35.065C32.35 36.865 30.2333 38.2897 27.8 39.339C25.3667 40.3897 22.7667 40.915 20 40.915Z" fill="white"/>
</svg>
