<svg width="24" height="24" viewBox="0 0 24 24" fill="none" xmlns="http://www.w3.org/2000/svg">
<path d="M13.1945 18.9919V13.0645H15.1345L15.4253 10.7548H13.1951V9.27993C13.1951 8.61072 13.3757 8.15527 14.3109 8.15527L15.5039 8.15462V6.08851C14.9266 6.02586 14.3465 5.99549 13.766 5.99755C12.0458 5.99755 10.8686 7.07413 10.8686 9.05123V10.7548H8.92352V13.0645H10.8686V18.9919H13.1945Z" fill="white"/>
<path opacity="0.1" fill-rule="evenodd" clip-rule="evenodd" d="M0.463074 11.9949C0.463074 5.3703 5.51358 0 11.7437 0C17.9738 0 23.0243 5.3703 23.0243 11.9949C23.0243 18.6195 17.9738 23.9898 11.7437 23.9898C5.51358 23.9898 0.463074 18.6195 0.463074 11.9949Z" fill="white"/>
</svg>
