<svg width="23" height="24" viewBox="0 0 23 24" fill="none" xmlns="http://www.w3.org/2000/svg">
<path fill-rule="evenodd" clip-rule="evenodd" d="M11.6572 5.99745C10.0233 5.99745 9.81821 6.00505 9.17646 6.0361C8.53596 6.06729 8.09877 6.17511 7.71623 6.33331C7.32052 6.49671 6.98486 6.71529 6.65045 7.07101C6.31579 7.42659 6.11023 7.78351 5.95606 8.20414C5.8069 8.61104 5.70537 9.07604 5.67654 9.75683C5.64784 10.4392 5.64032 10.6574 5.64032 12.3948C5.64032 14.1322 5.64759 14.3496 5.67667 15.032C5.70612 15.713 5.80753 16.1779 5.95618 16.5847C6.10997 17.0054 6.31554 17.3623 6.65007 17.7179C6.98436 18.0738 7.32002 18.2929 7.71548 18.4563C8.09827 18.6145 8.53559 18.7223 9.17596 18.7535C9.81771 18.7846 10.0226 18.7922 11.6565 18.7922C13.2905 18.7922 13.495 18.7846 14.1367 18.7535C14.7772 18.7223 15.2149 18.6145 15.5977 18.4563C15.9933 18.2929 16.3285 18.0738 16.6627 17.7179C16.9974 17.3623 17.203 17.0054 17.3571 16.5848C17.505 16.1779 17.6066 15.7129 17.6366 15.0321C17.6655 14.3497 17.673 14.1322 17.673 12.3948C17.673 10.6574 17.6655 10.4393 17.6366 9.75696C17.6066 9.07591 17.505 8.61104 17.3571 8.20427C17.203 7.78351 16.9974 7.42659 16.6627 7.07101C16.3281 6.71515 15.9934 6.49658 15.5973 6.33331C15.2138 6.17511 14.7763 6.06729 14.1358 6.0361C13.4941 6.00505 13.2898 5.99745 11.6553 5.99745H11.6572ZM11.1175 7.15029C11.2777 7.15002 11.4564 7.15029 11.6572 7.15029C13.2636 7.15029 13.454 7.15642 14.0883 7.18707C14.6749 7.2156 14.9933 7.31982 15.2054 7.40738C15.4861 7.52334 15.6863 7.66194 15.8967 7.88585C16.1073 8.10976 16.2377 8.323 16.347 8.62155C16.4293 8.84679 16.5275 9.18531 16.5542 9.80906C16.583 10.4834 16.5893 10.686 16.5893 12.3933C16.5893 14.1006 16.583 14.3032 16.5542 14.9776C16.5273 15.6013 16.4293 15.9399 16.347 16.1651C16.2379 16.4636 16.1073 16.6762 15.8967 16.9C15.6862 17.1239 15.4863 17.2625 15.2054 17.3785C14.9935 17.4664 14.6749 17.5704 14.0883 17.5989C13.4541 17.6296 13.2636 17.6362 11.6572 17.6362C10.0507 17.6362 9.8603 17.6296 9.22607 17.5989C8.63947 17.5701 8.3211 17.4659 8.1089 17.3783C7.82813 17.2624 7.62759 17.1238 7.41701 16.8999C7.20644 16.6759 7.07608 16.4632 6.96678 16.1646C6.88444 15.9393 6.78629 15.6008 6.75959 14.9771C6.73077 14.3027 6.725 14.1001 6.725 12.3917C6.725 10.6834 6.73077 10.4818 6.75959 9.80746C6.78642 9.18371 6.88444 8.84519 6.96678 8.61968C7.07583 8.32114 7.20644 8.10789 7.41701 7.88399C7.62759 7.66008 7.82813 7.52147 8.1089 7.40525C8.32098 7.31729 8.63947 7.21333 9.22607 7.18468C9.78108 7.15802 9.99617 7.15002 11.1175 7.14869V7.15029ZM14.8687 8.21252C14.4701 8.21252 14.1467 8.55598 14.1467 8.97993C14.1467 9.40376 14.4701 9.74762 14.8687 9.74762C15.2673 9.74762 15.5907 9.40376 15.5907 8.97993C15.5907 8.55611 15.2673 8.21252 14.8687 8.21252ZM11.6572 9.10948C9.95095 9.10948 8.56756 10.5805 8.56756 12.3948C8.56756 14.2091 9.95095 15.6794 11.6572 15.6794C13.3635 15.6794 14.7464 14.2091 14.7464 12.3948C14.7464 10.5805 13.3635 9.10948 11.6572 9.10948ZM11.6572 10.2623C12.7647 10.2623 13.6627 11.217 13.6627 12.3948C13.6627 13.5724 12.7647 14.5272 11.6572 14.5272C10.5496 14.5272 9.65174 13.5724 9.65174 12.3948C9.65174 11.217 10.5496 10.2623 11.6572 10.2623Z" fill="white"/>
<path opacity="0.1" fill-rule="evenodd" clip-rule="evenodd" d="M0 11.9949C0 5.3703 5.05051 0 11.2806 0C17.5107 0 22.5613 5.3703 22.5613 11.9949C22.5613 18.6195 17.5107 23.9898 11.2806 23.9898C5.05051 23.9898 0 18.6195 0 11.9949Z" fill="white"/>
</svg>
