<svg width="15" height="14" viewBox="0 0 15 14" fill="none" xmlns="http://www.w3.org/2000/svg">
<path fill-rule="evenodd" clip-rule="evenodd" d="M10.9988 0.249939C11.9486 0.249939 12.8624 0.647439 13.5346 1.36069C14.2075 2.07244 14.5836 3.03244 14.5836 4.03744V9.96244C14.5836 12.0549 12.9757 13.7499 10.9988 13.7499H4.00113C2.02417 13.7499 0.416962 12.0549 0.416962 9.96244V4.03744C0.416962 1.94494 2.01709 0.249939 4.00113 0.249939H10.9988ZM12.1257 5.15494L12.1824 5.09494C12.3517 4.87744 12.3517 4.56244 12.1746 4.34494C12.0761 4.23319 11.9408 4.16494 11.7999 4.14994C11.6511 4.14169 11.5095 4.19494 11.4025 4.29994L8.20863 6.99994C7.79779 7.36069 7.20917 7.36069 6.79196 6.99994L3.60446 4.29994C3.38417 4.12744 3.07959 4.14994 2.89613 4.35244C2.70488 4.55494 2.68363 4.87744 2.84584 5.10244L2.93863 5.19994L6.16154 7.86244C6.55821 8.19244 7.03917 8.37244 7.54279 8.37244C8.045 8.37244 8.53446 8.19244 8.93042 7.86244L12.1257 5.15494Z" fill="#F15C5A"/>
</svg>
