<svg width="17" height="18" viewBox="0 0 17 18" fill="none" xmlns="http://www.w3.org/2000/svg">
<path fill-rule="evenodd" clip-rule="evenodd" d="M3.50296 8.02104C3.50296 7.55705 3.50817 7.09307 3.5134 6.62694C3.51606 6.39061 3.51872 6.15374 3.52071 5.91603C3.52071 3.36206 5.01167 1.49994 7.07062 1.49994H9.7153C11.7743 1.49994 13.2652 3.36206 13.2652 5.91603C13.283 6.93909 13.2889 7.96216 13.2889 8.99258C13.2889 10.023 13.283 11.0608 13.2652 12.0838C13.2652 14.6378 11.7743 16.4999 9.7153 16.4999H7.07062C5.01167 16.4999 3.52071 14.6378 3.52071 12.0765C3.50887 11.1123 3.49704 10.126 3.49704 9.12506L3.50296 8.02104ZM9.28825 14.7299V14.8499C9.28825 15.3551 8.89433 15.7499 8.39299 15.7499C7.90358 15.7499 7.49774 15.3551 7.49774 14.8499V14.7299C7.49774 14.2379 7.90358 13.8299 8.39299 13.8299C8.89433 13.8299 9.28825 14.2379 9.28825 14.7299ZM4.90756 6.33249C4.90382 6.63548 4.9001 6.93706 4.9001 7.23865L4.89588 7.95627C4.89588 8.60691 4.90433 9.24798 4.91278 9.87469C4.91278 11.5396 5.97776 12.7499 7.44843 12.7499H9.3375C10.8082 12.7499 11.8731 11.5396 11.8731 9.87948C11.8858 9.21449 11.8901 8.53993 11.8901 7.87016C11.8901 7.20038 11.8858 6.53539 11.8731 5.8704C11.8731 4.21032 10.8082 2.99994 9.3375 2.99994H7.44843C5.97776 2.99994 4.91278 4.21032 4.91278 5.8704C4.91136 6.02491 4.90946 6.17888 4.90756 6.33249Z" fill="#4F4F4F"/>
</svg>
