<svg width="16" height="17" viewBox="0 0 16 17" fill="none" xmlns="http://www.w3.org/2000/svg">
<path d="M7.7621 16.2759C3.45656 16.2759 0 12.7651 0 8.5C0 4.18682 3.45656 0.724136 7.7621 0.724136C12.0676 0.724136 15.5242 4.18682 15.5242 8.5C15.5242 12.7651 12.0676 16.2759 7.7621 16.2759ZM7.7621 2.03048C4.20706 2.03048 1.30112 4.93865 1.30112 8.50048C1.30112 12.0623 4.20706 14.9729 7.7621 14.9729C11.3171 14.9729 14.2231 12.0618 14.2231 8.50048C14.2231 4.93914 11.3171 2.03048 7.7621 2.03048ZM11.5699 9.25183H5.96032C5.84146 9.25248 5.72718 9.20596 5.64246 9.12246C5.55774 9.03895 5.50946 8.92523 5.50818 8.80617V8.15057C5.50818 7.89737 5.70757 7.69763 5.96032 7.69763H11.6174C11.8678 7.69763 12.0672 7.90029 12.0672 8.15057V8.80131C12.0191 9.05208 11.8173 9.25183 11.5699 9.25183ZM10.1169 6.74314H4.4569C4.33797 6.74405 4.22354 6.69762 4.13876 6.61405C4.05398 6.53049 4.00578 6.41663 4.00476 6.29749V5.64188C4.00476 5.43923 4.20706 5.23948 4.4569 5.23948H10.114C10.3163 5.23948 10.5157 5.44214 10.5157 5.64188V6.29263C10.5157 6.5434 10.3168 6.74314 10.1169 6.74314ZM4.45738 10.2569H10.1174C10.3677 10.2569 10.5671 10.4566 10.5671 10.7074V11.3581C10.5676 11.4776 10.5208 11.5923 10.437 11.6772C10.3531 11.7622 10.2391 11.8103 10.1198 11.8111H4.45738C4.20706 11.7605 4.00767 11.5603 4.00767 11.31V10.6568C4.00524 10.4571 4.20706 10.2569 4.45738 10.2569Z" fill="#7B7B7B"/>
</svg>
