<svg width="24" height="24" viewBox="0 0 24 24" fill="none" xmlns="http://www.w3.org/2000/svg">
<path fill-rule="evenodd" clip-rule="evenodd" d="M11.8689 9.54969L11.8926 9.96474L11.4981 9.91392C10.062 9.7191 8.80739 9.05841 7.74216 7.94878L7.22138 7.3982L7.08724 7.80478C6.80318 8.71112 6.98467 9.66828 7.57646 10.312C7.89208 10.6678 7.82107 10.7186 7.27662 10.5069C7.08724 10.4391 6.92154 10.3883 6.90576 10.4137C6.85053 10.473 7.0399 11.2438 7.18982 11.5487C7.39498 11.9722 7.81318 12.3873 8.27083 12.6329L8.65747 12.8277L8.19981 12.8362C7.75794 12.8362 7.74216 12.8447 7.78951 13.0226C7.94732 13.5731 8.57067 14.1576 9.26504 14.4117L9.75426 14.5896L9.32817 14.8606C8.69692 15.2503 7.95521 15.4705 7.21349 15.4875C6.85842 15.4959 6.56647 15.5298 6.56647 15.5552C6.56647 15.6399 7.52912 16.1143 8.08935 16.3006C9.77004 16.8512 11.7664 16.614 13.2656 15.6738C14.3308 15.0046 15.396 13.6748 15.8931 12.3873C16.1614 11.7012 16.4297 10.4476 16.4297 9.84616C16.4297 9.45652 16.4533 9.40569 16.8952 8.93982C17.1556 8.66877 17.4002 8.3723 17.4476 8.2876C17.5265 8.12666 17.5186 8.12666 17.1162 8.27066C16.4455 8.52477 16.3508 8.49089 16.6822 8.10972C16.9268 7.83867 17.2187 7.34738 17.2187 7.20338C17.2187 7.17797 17.1004 7.22032 16.9662 7.29656C16.8242 7.38126 16.5086 7.50832 16.2719 7.58455L15.8458 7.72855L15.4591 7.44903C15.2461 7.29656 14.9462 7.12715 14.7884 7.07633C14.386 6.95774 13.7706 6.97468 13.4076 7.11021C12.4213 7.49138 11.7979 8.47395 11.8689 9.54969Z" fill="white"/>
<path opacity="0.1" fill-rule="evenodd" clip-rule="evenodd" d="M0.926147 11.9949C0.926147 5.3703 5.97666 0 12.2068 0C18.4369 0 23.4874 5.3703 23.4874 11.9949C23.4874 18.6195 18.4369 23.9898 12.2068 23.9898C5.97666 23.9898 0.926147 18.6195 0.926147 11.9949Z" fill="white"/>
</svg>
