<svg width="23" height="24" viewBox="0 0 23 24" fill="none" xmlns="http://www.w3.org/2000/svg">
<path opacity="0.1" fill-rule="evenodd" clip-rule="evenodd" d="M0.389282 11.9949C0.389282 5.3703 5.43979 0 11.6699 0C17.9 0 22.9505 5.3703 22.9505 11.9949C22.9505 18.6195 17.9 23.9898 11.6699 23.9898C5.43979 23.9898 0.389282 18.6195 0.389282 11.9949Z" fill="white"/>
<path fill-rule="evenodd" clip-rule="evenodd" d="M15.8069 7.27157C16.3246 7.42264 16.7324 7.86776 16.8708 8.43302C17.1222 9.4575 17.1222 11.5951 17.1222 11.5951C17.1222 11.5951 17.1222 13.7326 16.8708 14.7571C16.7324 15.3224 16.3246 15.7675 15.8069 15.9186C14.8686 16.1931 11.1059 16.1931 11.1059 16.1931C11.1059 16.1931 7.34313 16.1931 6.40479 15.9186C5.88704 15.7675 5.4793 15.3224 5.34093 14.7571C5.08954 13.7326 5.08954 11.5951 5.08954 11.5951C5.08954 11.5951 5.08954 9.4575 5.34093 8.43302C5.4793 7.86776 5.88704 7.42264 6.40479 7.27157C7.34313 6.99702 11.1059 6.99702 11.1059 6.99702C11.1059 6.99702 14.8686 6.99702 15.8069 7.27157ZM9.97782 9.79579V13.7941L12.986 11.795L9.97782 9.79579Z" fill="white"/>
</svg>
