<svg width="41" height="39" viewBox="0 0 41 39" fill="none" xmlns="http://www.w3.org/2000/svg">
<path d="M31.837 23.6402C31.319 24.1422 31.081 24.8682 31.199 25.5802L32.977 35.4202C33.127 36.2542 32.775 37.0982 32.077 37.5802C31.393 38.0802 30.483 38.1402 29.737 37.7402L20.879 33.1202C20.571 32.9562 20.229 32.8682 19.879 32.8582H19.337C19.149 32.8862 18.965 32.9462 18.797 33.0382L9.93702 37.6802C9.49902 37.9002 9.00302 37.9782 8.51702 37.9002C7.33302 37.6762 6.54302 36.5482 6.73702 35.3582L8.51702 25.5182C8.63502 24.8002 8.39702 24.0702 7.87902 23.5602L0.657019 16.5602C0.0530192 15.9742 -0.156981 15.0942 0.119019 14.3002C0.387019 13.5082 1.07102 12.9302 1.89702 12.8002L11.837 11.3582C12.593 11.2802 13.257 10.8202 13.597 10.1402L17.977 1.16021C18.081 0.960214 18.215 0.776214 18.377 0.620214L18.557 0.480214C18.651 0.376214 18.759 0.290214 18.879 0.220214L19.097 0.140214L19.437 0.000213623H20.279C21.031 0.0782136 21.693 0.528214 22.039 1.20021L26.477 10.1402C26.797 10.7942 27.419 11.2482 28.137 11.3582L38.077 12.8002C38.917 12.9202 39.619 13.5002 39.897 14.3002C40.159 15.1022 39.933 15.9822 39.317 16.5602L31.837 23.6402Z" fill="#2191FA"/>
</svg>
