<svg width="33" height="33" viewBox="0 0 33 33" fill="none" xmlns="http://www.w3.org/2000/svg">
<path d="M9.36045 0C9.66677 0 9.96055 0.121687 10.1772 0.338292C10.3938 0.554896 10.5155 0.848675 10.5155 1.155V3.31485H22.9185V1.16985C22.9185 0.863525 23.0402 0.569746 23.2568 0.353142C23.4734 0.136537 23.7672 0.01485 24.0735 0.01485C24.3798 0.01485 24.6736 0.136537 24.8902 0.353142C25.1068 0.569746 25.2285 0.863525 25.2285 1.16985V3.31485H29.7C30.5749 3.31485 31.414 3.6623 32.0329 4.28081C32.6517 4.89933 32.9996 5.73827 33 6.6132V29.7016C32.9996 30.5766 32.6517 31.4155 32.0329 32.034C31.414 32.6525 30.5749 33 29.7 33H3.3C2.42507 33 1.58595 32.6525 0.967131 32.034C0.348308 31.4155 0.000437464 30.5766 0 29.7016L0 6.6132C0.000437464 5.73827 0.348308 4.89933 0.967131 4.28081C1.58595 3.6623 2.42507 3.31485 3.3 3.31485H8.20545V1.15335C8.20589 0.847311 8.32777 0.553956 8.54432 0.337708C8.76088 0.12146 9.05441 -3.12285e-07 9.36045 0ZM2.31 12.7743V29.7016C2.31 29.8317 2.33561 29.9604 2.38536 30.0805C2.43511 30.2006 2.50803 30.3098 2.59996 30.4017C2.69189 30.4936 2.80103 30.5665 2.92114 30.6163C3.04126 30.666 3.16999 30.6916 3.3 30.6916H29.7C29.83 30.6916 29.9587 30.666 30.0789 30.6163C30.199 30.5665 30.3081 30.4936 30.4 30.4017C30.492 30.3098 30.5649 30.2006 30.6146 30.0805C30.6644 29.9604 30.69 29.8317 30.69 29.7016V12.7974L2.31 12.7743ZM11.0005 24.1214V26.8702H8.25V24.1214H11.0005ZM17.8745 24.1214V26.8702H15.1255V24.1214H17.8745ZM24.75 24.1214V26.8702H21.9995V24.1214H24.75ZM11.0005 17.5593V20.3082H8.25V17.5593H11.0005ZM17.8745 17.5593V20.3082H15.1255V17.5593H17.8745ZM24.75 17.5593V20.3082H21.9995V17.5593H24.75ZM8.20545 5.6232H3.3C3.16999 5.6232 3.04126 5.64881 2.92114 5.69856C2.80103 5.74831 2.69189 5.82123 2.59996 5.91316C2.50803 6.00509 2.43511 6.11423 2.38536 6.23434C2.33561 6.35446 2.31 6.48319 2.31 6.6132V10.466L30.69 10.489V6.6132C30.69 6.48319 30.6644 6.35446 30.6146 6.23434C30.5649 6.11423 30.492 6.00509 30.4 5.91316C30.3081 5.82123 30.199 5.74831 30.0789 5.69856C29.9587 5.64881 29.83 5.6232 29.7 5.6232H25.2285V7.15605C25.2285 7.46237 25.1068 7.75615 24.8902 7.97276C24.6736 8.18936 24.3798 8.31105 24.0735 8.31105C23.7672 8.31105 23.4734 8.18936 23.2568 7.97276C23.0402 7.75615 22.9185 7.46237 22.9185 7.15605V5.6232H10.5155V7.1412C10.5155 7.44753 10.3938 7.7413 10.1772 7.95791C9.96055 8.17451 9.66677 8.2962 9.36045 8.2962C9.05412 8.2962 8.76035 8.17451 8.54374 7.95791C8.32714 7.7413 8.20545 7.44753 8.20545 7.1412V5.6232Z" fill="#333333"/>
</svg>
