<?xml version="1.0" encoding="UTF-8"?>
<svg id="Layer_1" data-name="Layer 1" xmlns="http://www.w3.org/2000/svg" viewBox="0 0 25 25">
  <defs>
    <style>
      .cls-1 {
        fill: #fff;
      }
    </style>
  </defs>
  <polygon class="cls-1" points="7.21 12.3 8.64 12.3 8.64 11.76 7.21 11.76 7.21 10.77 8.76 10.77 8.76 10.23 6.58 10.23 6.58 13.92 8.78 13.92 8.78 13.38 7.21 13.38 7.21 12.3"/>
  <polygon class="cls-1" points="11.71 11.16 11.03 11.16 10.38 12.07 9.73 11.16 9.05 11.16 10.02 12.5 9 13.92 9.69 13.92 10.38 12.94 11.07 13.92 11.76 13.92 10.74 12.5 11.71 11.16"/>
  <path class="cls-1" d="m13.42,11.09c-.4,0-.68.15-.87.38v-.31h-.55v3.78h.56v-1.3c.21.22.52.34.86.33.78,0,1.29-.63,1.29-1.44s-.51-1.44-1.29-1.44Zm-.09,2.37c-.32,0-.59-.15-.76-.39v-1.04c.16-.24.43-.43.76-.43.5,0,.82.42.82.94s-.34.93-.82.93Z"/>
  <path class="cls-1" d="m21.57,10.06c-.22,0-.39.17-.39.38s.17.39.39.39.38-.17.38-.39-.18-.38-.38-.38Z"/>
  <path class="cls-1" d="m24.46,11.16v.3c-.22-.24-.54-.37-.88-.36-.78,0-1.29.63-1.29,1.44s.51,1.44,1.29,1.44c.4,0,.68-.15.87-.38v.32h.55v-2.76h-.54Zm-.04,1.89c-.16.24-.43.43-.76.43-.5,0-.82-.42-.82-.94s.34-.93.82-.93c.32,0,.59.15.76.39v1.04Z"/>
  <rect class="cls-1" x="21.28" y="11.16" width=".57" height="2.76"/>
  <path class="cls-1" d="m16.37,11.08c-.79,0-1.38.62-1.38,1.45s.59,1.45,1.42,1.45c.25,0,.48-.05.68-.14.21-.09.38-.23.54-.41l-.34-.36c-.11.12-.24.21-.38.29-.14.07-.3.11-.48.11-.43,0-.8-.32-.85-.74h2.15v-.02c0-.07,0-.13,0-.2,0-.79-.57-1.43-1.35-1.43Zm-.79,1.17c.03-.16.12-.32.25-.45.14-.13.33-.22.53-.22.41,0,.72.29.78.67h-1.56Z"/>
  <path class="cls-1" d="m20.16,10.13v1.3c-.21-.22-.52-.34-.86-.34-.78,0-1.29.63-1.29,1.44s.51,1.44,1.29,1.44c.4,0,.68-.15.87-.38v.31h.55v-3.78h-.56Zm-.01,2.91c-.16.24-.43.43-.76.43-.5,0-.82-.42-.82-.94s.34-.93.82-.93c.32,0,.59.15.76.39v1.04Z"/>
  <path id="path54" class="cls-1" d="m.11,13.54c.43-.21,1.89-.92,2.18-1.09.24-.14.59-.34.59-.34l.15.3.23,1.5.17-.1.11-2.1c.35-.22.66-.43.99-.66.12-.08.24-.16.37-.25-.04-.08-.08-.15-.13-.22-.14.07-.27.13-.4.19-.36.17-.7.33-1.06.53l-1.87-.95-.17.1,1.19.95.19.28h0s-.35.2-.59.34C1.75,12.19.39,13.1,0,13.37c.03.06.07.12.11.18"/>
</svg>