<svg width="53" height="45" viewBox="0 0 53 45" fill="none" xmlns="http://www.w3.org/2000/svg">
<path d="M16 42V5.25C16 3.80625 16.5145 2.57075 17.5435 1.5435C18.5708 0.5145 19.8062 0 21.25 0H37C38.4437 0 39.6801 0.5145 40.7091 1.5435C41.7364 2.57075 42.25 3.80625 42.25 5.25V13.125H44.875C47.0625 13.125 48.9219 13.8906 50.4531 15.4219C51.9844 16.9531 52.75 18.8125 52.75 21V36.75C52.75 38.1937 52.2364 39.4301 51.2091 40.4591C50.1801 41.4864 48.9437 42 47.5 42H16ZM6.8125 44.625C8.65 44.625 10.2031 43.9906 11.4719 42.7219C12.7406 41.4531 13.375 39.9 13.375 38.0625V17.0625C13.375 15.225 12.7406 13.6719 11.4719 12.4031C10.2031 11.1344 8.65 10.5 6.8125 10.5C4.975 10.5 3.42187 11.1344 2.15312 12.4031C0.884375 13.6719 0.25 15.225 0.25 17.0625V38.0625C0.25 39.9 0.884375 41.4531 2.15312 42.7219C3.42187 43.9906 4.975 44.625 6.8125 44.625ZM21.25 13.125H37V5.25H21.25V13.125ZM37 26.25C37.7438 26.25 38.3667 25.998 38.869 25.494C39.373 24.9917 39.625 24.3687 39.625 23.625C39.625 22.8813 39.373 22.2574 38.869 21.7534C38.3667 21.2511 37.7438 21 37 21C36.2562 21 35.6333 21.2511 35.131 21.7534C34.627 22.2574 34.375 22.8813 34.375 23.625C34.375 24.3687 34.627 24.9917 35.131 25.494C35.6333 25.998 36.2562 26.25 37 26.25ZM44.875 26.25C45.6188 26.25 46.2417 25.998 46.744 25.494C47.248 24.9917 47.5 24.3687 47.5 23.625C47.5 22.8813 47.248 22.2574 46.744 21.7534C46.2417 21.2511 45.6188 21 44.875 21C44.1312 21 43.5083 21.2511 43.006 21.7534C42.502 22.2574 42.25 22.8813 42.25 23.625C42.25 24.3687 42.502 24.9917 43.006 25.494C43.5083 25.998 44.1312 26.25 44.875 26.25ZM37 34.125C37.7438 34.125 38.3667 33.873 38.869 33.369C39.373 32.8667 39.625 32.2438 39.625 31.5C39.625 30.7563 39.373 30.1324 38.869 29.6284C38.3667 29.1261 37.7438 28.875 37 28.875C36.2562 28.875 35.6333 29.1261 35.131 29.6284C34.627 30.1324 34.375 30.7563 34.375 31.5C34.375 32.2438 34.627 32.8667 35.131 33.369C35.6333 33.873 36.2562 34.125 37 34.125ZM44.875 34.125C45.6188 34.125 46.2417 33.873 46.744 33.369C47.248 32.8667 47.5 32.2438 47.5 31.5C47.5 30.7563 47.248 30.1324 46.744 29.6284C46.2417 29.1261 45.6188 28.875 44.875 28.875C44.1312 28.875 43.5083 29.1261 43.006 29.6284C42.502 30.1324 42.25 30.7563 42.25 31.5C42.25 32.2438 42.502 32.8667 43.006 33.369C43.5083 33.873 44.1312 34.125 44.875 34.125ZM21.25 34.125H31.75V21H21.25V34.125Z" fill="white"/>
</svg>
