<?xml version="1.0" encoding="UTF-8"?>
<svg id="Layer_1" data-name="Layer 1" xmlns="http://www.w3.org/2000/svg" viewBox="0 0 25 25">
  <defs>
    <style>
      .cls-1 {
        fill: #fff;
      }
    </style>
  </defs>
  <path class="cls-1" d="m7.72,11.81c0-.28.22-.49.49-.49s.49.21.49.49-.22.49-.49.49-.49-.21-.49-.49Zm.87-.88c0,.28.22.49.49.49s.49-.21.49-.49-.22-.49-.49-.49-.49.21-.49.49Zm1.19-.6v.88c.68,0,1.22.56,1.22,1.29s-.54,1.29-1.22,1.29-1.22-.56-1.22-1.29h-.96c0,1.21.97,2.16,2.18,2.16s2.18-.95,2.18-2.16-.97-2.16-2.18-2.16Zm9.83,8.22v-.83h1.54v-.83h-1.54v-.82h1.7v-.84h-2.64v4.15h2.66v-.84h-1.72Zm-1.49-1.24c0,1.19-.91,2.07-2.2,2.07h-1.37v-4.16h1.37c1.29,0,2.2.89,2.2,2.08Zm-.96,0c0-.71-.47-1.25-1.17-1.25h-.51v2.49h.51c.69,0,1.17-.53,1.17-1.24Zm-6.25.48c0,.48-.34.83-.81.83s-.81-.35-.81-.83v-2.55h-.93v2.54c0,.98.73,1.7,1.73,1.7s1.73-.72,1.73-1.7v-2.54h-.93v2.55h0Zm-5.39.08h.92c-.08.43-.46.76-.92.76-.51,0-.92-.41-.92-1.01v-.62c0-.59.44-1.02,1.05-1.02.48,0,.91.26,1.04.64l.86-.3c-.24-.73-1.02-1.18-1.91-1.18-1.13,0-1.97.76-1.97,1.86v.62c0,1.06.79,1.85,1.75,1.85.6,0,1.13-.31,1.44-.78v.69h.82v-2.31h-2.19v.79Zm10.48-4.92v-2.54h-.93v2.55c0,.48-.34.83-.81.83s-.81-.35-.81-.83v-2.55h-.93v2.54c0,.98.73,1.7,1.73,1.7s1.73-.72,1.73-1.7Zm-10.76,1.62h.93v-1.58l1.56-2.58h-1.05l-.99,1.7-.97-1.7h-1.05l1.56,2.59v1.57h0ZM14.59,5.6h-3.15v.84h3.15v-.84Zm-3.55,3.32h-1.73v-.83h1.54v-.83h-1.54v-.82h1.7v-.84h-2.64v4.15h2.66v-.83h0Zm-5.59.93c.6,0,1.13-.31,1.44-.78v.69h.82v-2.31h-2.19v.8h.92c-.08.43-.46.76-.92.76-.51,0-.92-.41-.92-1.01v-.62c0-.59.44-1.02,1.05-1.02.48,0,.91.26,1.04.64l.86-.3c-.24-.73-1.02-1.18-1.91-1.18-1.13,0-1.97.76-1.97,1.86v.62c0,1.05.79,1.84,1.75,1.84Zm12.67,3.69l-.48-.51.48-.52-.48-.51.48-.52-.48-.51.53-.55h-.97l-.52.55.48.51-.48.52.48.51-.48.52.48.51-.48.52.51.53h.97l-.52-.54.47-.52Zm-4.53,3.67c.14-.12.37-.33.37-.71s-.23-.59-.37-.71c0,0,0,0-.01-.01-.07-.07-.08-.18-.08-.23v-.29h-.94v.39h0c0,.39.23.61.37.73.1.09.1.09.1.13s0,.04-.1.13c-.13.12-.35.32-.36.67h0v.02h0v.04h0c.01.35.24.55.36.67.1.09.1.09.1.13s0,.04-.1.13c-.14.12-.37.33-.37.71h0v.4h.94v-.29s.01-.15.08-.23h.01c.14-.14.37-.34.37-.73s-.23-.59-.37-.71c-.09-.08-.1-.09-.1-.12,0-.01.01-.03.1-.11Zm-1.04-7.45h.93v-.77h-.93v.77Zm.94-1.88h-.93v.77h.93v-.77Zm0-1.11h-.93v.77h.93v-.77Zm7.06,7.81l-1.13-1.59c.55-.17.94-.66.94-1.25,0-.75-.62-1.32-1.4-1.32h-.55v.84h.51c.27,0,.48.22.48.5s-.21.5-.48.5h-.51v.8l1.02,1.51h1.13Z"/>
</svg>