<svg width="33" height="26" viewBox="0 0 33 26" fill="none" xmlns="http://www.w3.org/2000/svg">
<path d="M7.67597 2.13611C7.48705 2.20264 7.30434 2.2665 7.12162 2.33036C6.82538 2.43413 6.52736 2.53081 6.23555 2.64434C6.12734 2.68603 6.0963 2.65055 6.04663 2.5654C5.95616 2.41018 5.86392 2.24787 5.73975 2.12015C5.44616 1.8177 5.07275 1.6545 4.66387 1.57112C4.26385 1.48952 3.86738 1.50992 3.48421 1.65716C2.94494 1.8647 2.56089 2.22658 2.41454 2.79867C2.3631 2.99912 2.3356 3.20933 2.33206 3.41599C2.32496 3.85504 2.31432 4.29674 2.35246 4.73401C2.4172 5.47639 2.9414 6.12653 3.71216 6.25071C4.18668 6.32698 4.60888 6.20281 4.98317 5.92697C5.30691 5.68838 5.50647 5.35399 5.61025 4.96462C5.61291 4.95486 5.60759 4.94333 5.60493 4.92027H3.9747V3.47985H7.92255V7.63436H6.45463V6.40415C6.36505 6.51502 6.29587 6.60105 6.2258 6.68531C5.9943 6.96559 5.71668 7.19088 5.40536 7.37803C5.10734 7.55719 4.78538 7.6725 4.44922 7.74257C4.13435 7.8082 3.81416 7.82062 3.49042 7.77982C3.13741 7.73547 2.79593 7.65831 2.48373 7.48712C2.29037 7.38069 2.09967 7.26539 1.92228 7.13412C1.49211 6.81481 1.18699 6.39439 0.975012 5.90568C0.861482 5.64403 0.77456 5.37439 0.731986 5.09145C0.637969 4.47236 0.697395 3.84971 0.687638 3.22884C0.678769 2.67716 0.826004 2.16095 1.09386 1.68199C1.35906 1.20924 1.72715 0.8314 2.19103 0.550235C2.5671 0.3214 2.96978 0.152878 3.40705 0.0845828C3.65451 0.0464436 3.90374 0.00386927 4.15298 0.000321447C4.39955 -0.00411334 4.64613 0.0384609 4.8927 0.0588609C5.20136 0.0854696 5.49494 0.175052 5.78321 0.282374C6.15573 0.420739 6.49632 0.614983 6.80409 0.868652C7.1979 1.19417 7.47286 1.60039 7.64581 2.07846C7.65114 2.09177 7.65823 2.10418 7.6742 2.13611H7.67597Z" fill="#FF5533"/>
<path d="M4.9637 23.3281C5.2014 23.1507 5.37791 22.9254 5.50119 22.6567C5.5074 22.6496 5.51361 22.6425 5.51893 22.6354C5.55175 22.5298 5.58457 22.4252 5.62182 22.3063H3.97385V20.8668H7.92436V25.0222H6.45201V23.8381C6.44314 23.8345 6.43427 23.8319 6.42629 23.8283C6.36864 23.9002 6.31099 23.972 6.25333 24.043C6.02184 24.3286 5.74511 24.5627 5.42846 24.7499C5.39476 24.7694 5.35396 24.7765 5.32114 24.8004C5.26172 24.8253 5.20229 24.8501 5.14198 24.874C5.11625 24.8847 5.08344 24.8847 5.06304 24.9015C4.90338 25.0302 4.71712 25.0736 4.51756 25.0851C4.47144 25.0878 4.42798 25.1304 4.38008 25.1384C4.263 25.1579 4.14326 25.1827 4.0253 25.1774C3.74236 25.1659 3.45587 25.1614 3.17914 25.1091C3.05231 25.0851 2.91394 25.063 2.79065 25.008C2.64342 24.9423 2.49618 24.8767 2.35161 24.8058C2.27444 24.7676 2.18131 24.7339 2.13253 24.67C2.06424 24.5805 1.95514 24.5645 1.88241 24.4909C1.87443 24.4856 1.86733 24.4802 1.85935 24.4749C1.49836 24.1636 1.19324 23.8035 1.01142 23.3609C0.927157 23.156 0.826044 22.9538 0.779922 22.7338C0.770165 22.6886 0.78347 22.638 0.785243 22.5901C0.785243 22.5742 0.789678 22.5538 0.781696 22.5414C0.679695 22.3782 0.686791 22.1945 0.686791 22.0136C0.685017 21.5373 0.680582 21.0601 0.686791 20.5838C0.697435 19.8929 0.912965 19.2703 1.32983 18.7177C1.72542 18.1935 2.24251 17.8449 2.85451 17.6205C3.26163 17.4715 3.67938 17.4094 4.11133 17.3979C4.66479 17.3828 5.19963 17.4573 5.71938 17.6445C6.12118 17.789 6.48838 17.9904 6.81832 18.2662C7.20238 18.5873 7.46846 18.9847 7.64231 19.4494C7.6494 19.4698 7.65916 19.4884 7.67424 19.523C7.48975 19.5869 7.30792 19.649 7.1261 19.7128C6.82365 19.8193 6.52119 19.9257 6.22052 20.0366C6.1398 20.0667 6.09634 20.0508 6.05998 19.9727C5.77438 19.3634 5.25817 19.0778 4.62577 18.9527C4.16189 18.8614 3.71664 18.9146 3.29178 19.1257C2.79864 19.3714 2.49973 19.7723 2.3729 20.3009C2.34008 20.4366 2.33298 20.5812 2.33121 20.7222C2.32589 21.1612 2.31347 21.6021 2.33387 22.0402C2.35072 22.4003 2.47756 22.7312 2.70107 23.0239C2.85363 23.2234 3.03811 23.3902 3.26074 23.4931C3.43813 23.5755 3.64124 23.603 3.83283 23.6536C3.84347 23.6563 3.855 23.6527 3.86565 23.6536C4.19293 23.7112 4.48031 23.5942 4.76236 23.4531C4.77034 23.4487 4.77832 23.4443 4.78542 23.4398C4.81469 23.423 4.84307 23.4052 4.87234 23.3884C4.88032 23.3831 4.88919 23.3778 4.89718 23.3724C4.91137 23.3627 4.92556 23.3529 4.93975 23.3432C4.94773 23.3378 4.95572 23.3325 4.9637 23.3281Z" fill="#FF5533"/>
<path d="M20.2531 25.025V17.5258H20.3799C21.1515 17.5258 21.9241 17.5249 22.6957 17.5258C23.1667 17.5267 23.6324 17.5799 24.0812 17.7298C24.5796 17.8965 25.0364 18.1369 25.44 18.4819C26.0422 18.9972 26.4041 19.6509 26.5824 20.4119C26.6702 20.7871 26.7083 21.1694 26.6755 21.5552C26.6143 22.2799 26.3899 22.9504 25.9544 23.5358C25.6378 23.9615 25.2351 24.2915 24.7659 24.5443C24.3969 24.743 24.0058 24.8742 23.5987 24.9532C23.3361 25.0037 23.0638 25.0223 22.7951 25.0259C21.9711 25.0348 21.1471 25.0294 20.324 25.0286C20.3027 25.0286 20.2805 25.0259 20.2531 25.0241V25.025ZM21.9445 23.5181C22.2647 23.5181 22.5778 23.526 22.8909 23.5163C23.4958 23.4986 24.012 23.2812 24.4164 22.8191C24.7473 22.4413 24.8998 21.989 24.938 21.5011C24.9566 21.2599 24.9326 21.0098 24.8954 20.7694C24.8324 20.357 24.6497 19.9915 24.3712 19.682C23.996 19.2651 23.5153 19.0664 22.9609 19.0443C22.6514 19.0327 22.3401 19.0398 22.0305 19.0389C22.0021 19.0389 21.9737 19.0443 21.9445 19.0469V23.5172V23.5181Z" fill="#FF5533"/>
<path d="M9.09246 17.5371H10.7741V17.6675C10.7741 19.1895 10.7741 20.7124 10.7741 22.2344C10.7741 22.795 11.1564 23.3547 11.6895 23.5471C12.1702 23.7201 12.6199 23.6686 13.0447 23.3919C13.3756 23.1764 13.5592 22.858 13.6319 22.4775C13.6656 22.3036 13.6771 22.1227 13.6771 21.9453C13.6807 20.5226 13.6789 19.0999 13.6789 17.6781V17.5407H15.3606C15.3606 17.5779 15.3606 17.6169 15.3606 17.656C15.3606 19.1416 15.3686 20.6264 15.357 22.112C15.3517 22.7577 15.1876 23.3706 14.8062 23.9019C14.4115 24.4518 13.8936 24.835 13.2354 25.0346C12.8195 25.1614 12.4026 25.1889 11.9742 25.1729C11.5218 25.157 11.0988 25.0408 10.7005 24.8341C10.1746 24.5609 9.76389 24.1653 9.47119 23.6482C9.28227 23.3139 9.17052 22.9538 9.11375 22.5777C9.09158 22.4322 9.09246 22.2814 9.09246 22.1333C9.09069 20.637 9.09246 19.1407 9.09246 17.6444C9.09246 17.6116 9.09246 17.5797 9.09246 17.5371Z" fill="#FF5533"/>
<path d="M22.8625 8.8512C22.8625 8.89555 22.8625 8.93547 22.8625 8.97538C22.8625 10.461 22.8669 11.9467 22.8607 13.4314C22.8572 14.3291 22.5441 15.1016 21.8718 15.7109C21.4646 16.0799 20.9821 16.3052 20.4455 16.4196C20.136 16.4861 19.8238 16.4897 19.5089 16.4826C19.0636 16.4719 18.645 16.3531 18.2503 16.1642C18.0348 16.0613 17.8432 15.9061 17.6472 15.765C17.3545 15.5539 17.1505 15.2621 16.9749 14.9561C16.8161 14.6803 16.7088 14.3778 16.66 14.0621C16.6263 13.843 16.6059 13.6204 16.605 13.3986C16.6006 11.9165 16.6023 10.4353 16.6023 8.9532C16.6023 8.92039 16.6023 8.88757 16.6023 8.84766H18.2787C18.2787 8.89378 18.2787 8.93724 18.2787 8.97981C18.2787 10.4539 18.2787 11.9289 18.2787 13.4031C18.2787 13.6514 18.3124 13.8918 18.4206 14.1188C18.6264 14.5508 18.9608 14.824 19.4308 14.9144C19.8415 14.9934 20.2256 14.9224 20.5715 14.675C20.905 14.4364 21.1036 14.1162 21.1524 13.7082C21.1728 13.5379 21.1852 13.3649 21.1861 13.1929C21.1888 11.7924 21.1879 10.3918 21.1879 8.99134C21.1879 8.94699 21.1879 8.90265 21.1879 8.84943H22.8643L22.8625 8.8512Z" fill="#FF5533"/>
<path d="M27.6973 17.5381H32.4318V19.0433H29.3825V20.5227H32.1445V22.0261H29.3816V23.5171H32.4797V25.024H27.6973V17.539V17.5381Z" fill="#FF5533"/>
<path d="M9.07208 0.155518H13.8102V1.65447H10.7608V3.13392H13.5211V4.62844H10.7591V6.13006H13.8563V7.63522H9.07208V0.155518Z" fill="#FF5533"/>
<path d="M11.6584 8.69889C12.054 8.70421 12.4336 8.75388 12.8044 8.86475C13.3383 9.0244 13.8244 9.27807 14.2421 9.64438C14.7175 10.0604 15.0688 10.5642 15.3056 11.1566C15.5389 11.7411 15.5956 12.3443 15.5593 12.9589C15.5371 13.3341 15.4377 13.6995 15.2967 14.0499C15.0918 14.5599 14.8 15.0149 14.4027 15.3936C13.9015 15.8717 13.3144 16.2017 12.6412 16.372C12.242 16.4731 11.8376 16.5006 11.426 16.4846C11.0526 16.4704 10.6899 16.4048 10.3395 16.2824C9.92886 16.1396 9.55101 15.9347 9.20421 15.6642C8.80065 15.3493 8.47957 14.9723 8.22413 14.5315C8.00416 14.1519 7.85781 13.7483 7.78686 13.3173C7.74783 13.0822 7.72566 12.8445 7.69373 12.5953H9.43837C9.46143 12.9261 9.50578 13.2516 9.64326 13.5567C9.97054 14.2832 10.5142 14.7399 11.309 14.8748C11.8677 14.9697 12.3893 14.849 12.8514 14.5342C13.2594 14.2566 13.553 13.8796 13.7108 13.3998C13.7862 13.1691 13.8235 12.9385 13.8386 12.6973C13.8652 12.2751 13.7791 11.876 13.5973 11.5017C13.4084 11.1123 13.1299 10.7983 12.7476 10.5801C12.4407 10.4045 12.1125 10.3069 11.7613 10.2821C11.7285 10.2794 11.6974 10.2688 11.6602 10.2608V8.698L11.6584 8.69889Z" fill="#FF5533"/>
<path d="M4.28959 11.891C4.49004 11.5379 4.68251 11.1965 4.87853 10.8576C5.10027 10.4745 5.32644 10.094 5.54907 9.7117C5.70428 9.44561 5.85595 9.17775 6.01472 8.91432C6.03512 8.88062 6.08568 8.84603 6.12204 8.84603C6.72783 8.84159 7.33363 8.84337 7.96248 8.84337C7.86136 9.00923 7.76646 9.16356 7.67333 9.31878C7.2946 9.94408 6.91587 10.5703 6.53625 11.1956C6.08302 11.9424 5.62712 12.6883 5.17477 13.436C5.14994 13.4768 5.14284 13.5327 5.14284 13.5824C5.14107 14.4543 5.14107 15.327 5.14107 16.1989C5.14107 16.2397 5.14107 16.2805 5.14107 16.3293H3.45585V16.2158C3.45585 15.3545 3.45585 14.4933 3.45408 13.6329C3.45408 13.5779 3.43988 13.5159 3.41239 13.4688C3.06825 12.8968 2.71879 12.3282 2.37376 11.757C2.0039 11.145 1.63759 10.5312 1.26861 9.91925C1.06107 9.57422 0.849971 9.23186 0.641536 8.88772C0.63444 8.87619 0.63444 8.86111 0.630005 8.84337C1.24644 8.84337 1.86021 8.84337 2.4731 8.84603C2.50415 8.84603 2.54849 8.87352 2.56446 8.90013C2.9698 9.60349 3.37248 10.3095 3.77515 11.0146C3.92948 11.2843 4.08204 11.5548 4.23637 11.8253C4.24702 11.8439 4.26298 11.859 4.28959 11.8927V11.891Z" fill="#FF5534"/>
<path d="M31.0642 16.3373C30.4717 16.3373 29.8996 16.324 29.3275 16.3435C29.0862 16.3515 28.9541 16.2752 28.8228 16.0704C28.3084 15.2712 27.77 14.488 27.2414 13.6978C27.2157 13.6596 27.1882 13.6135 27.1873 13.5709C27.1837 13.1097 27.1846 12.6476 27.1846 12.1678C27.2245 12.1678 27.2591 12.1678 27.2937 12.1678C27.5704 12.1678 27.8481 12.1678 28.1248 12.1678C28.5221 12.1669 28.8902 11.8334 28.9576 11.444C29.0126 11.1282 28.9248 10.8595 28.7253 10.6289C28.6144 10.5003 28.4574 10.416 28.2827 10.3965C28.1044 10.377 27.9243 10.3734 27.7452 10.369C27.5642 10.3646 27.3833 10.3681 27.1935 10.3681V8.84166C27.4888 8.84166 27.7833 8.83812 28.0778 8.84166C28.4388 8.84699 28.7944 8.88956 29.1359 9.01728C29.4277 9.12638 29.6903 9.28159 29.9262 9.48826C30.273 9.79159 30.5027 10.165 30.6207 10.6067C30.6961 10.8896 30.72 11.1744 30.6899 11.4715C30.6446 11.9114 30.4832 12.2999 30.2251 12.6485C29.9634 13.0015 29.6087 13.2401 29.206 13.4086C29.1528 13.4308 29.0987 13.4521 29.0268 13.4804C29.7053 14.4322 30.3777 15.375 31.0633 16.3364L31.0642 16.3373Z" fill="#FF5533"/>
<path d="M16.6715 17.532H18.354C18.354 17.6854 18.3567 17.8327 18.354 17.9799C18.3478 18.2078 18.4144 18.3932 18.598 18.5493C18.8756 18.7861 19.0929 19.0735 19.1567 19.4469C19.2454 19.9631 19.1496 20.4332 18.7789 20.8235C18.6751 20.9326 18.5598 21.0319 18.4498 21.1348C18.3292 21.2474 18.331 21.2856 18.4419 21.4027C18.613 21.5836 18.794 21.7574 18.9456 21.9543C19.1115 22.1699 19.1683 22.4271 19.1842 22.7029C19.2117 23.1819 19.0308 23.5659 18.7124 23.9012C18.6725 23.9438 18.6263 23.9819 18.5802 24.0183C18.3878 24.1682 18.3478 24.3819 18.3372 24.6055C18.3301 24.7412 18.3363 24.8778 18.3363 25.0223H16.6777C16.675 24.9966 16.6697 24.9691 16.6697 24.9407C16.6697 24.6968 16.6697 24.4529 16.6697 24.209C16.6679 23.8986 16.7735 23.6209 16.9633 23.3841C17.0999 23.2147 17.2675 23.0684 17.4272 22.9194C17.5239 22.8289 17.515 22.6985 17.4015 22.6134C17.0334 22.3375 16.762 21.9898 16.6804 21.5304C16.597 21.0621 16.7274 20.6408 17.044 20.2842C17.1717 20.1405 17.3145 20.0084 17.452 19.8735C17.5212 19.8053 17.5176 19.7432 17.452 19.6749C17.2791 19.4975 17.0972 19.3272 16.9411 19.1365C16.7699 18.9272 16.6804 18.6762 16.675 18.4039C16.6697 18.1165 16.6741 17.8291 16.6741 17.5338L16.6715 17.532Z" fill="#FF5534"/>
<path d="M24.0847 15.0611C24.3561 14.6655 24.6284 14.2681 24.9033 13.8717C24.9317 13.8309 24.9388 13.8052 24.9069 13.7608C24.6505 13.3998 24.3977 13.037 24.1432 12.6743C24.1246 12.6477 24.1015 12.6237 24.0714 12.5874C24.2044 12.3949 24.341 12.1998 24.4749 12.0037C24.6133 11.8006 24.7516 11.5975 24.8856 11.3917C24.9024 11.366 24.9033 11.3093 24.8856 11.2844C24.6292 10.9119 24.3676 10.5438 24.1121 10.1713C24.0917 10.1411 24.0926 10.0728 24.1121 10.0418C24.364 9.65863 24.6204 9.27812 24.8794 8.89939C24.8989 8.87101 24.9441 8.84618 24.9778 8.84529C25.5313 8.84174 26.0856 8.84263 26.6648 8.84263C26.3721 9.26659 26.0909 9.67548 25.8045 10.0915C26.0909 10.4977 26.3801 10.9084 26.6719 11.3217C26.4076 11.7093 26.1451 12.0986 25.8763 12.4827C25.8266 12.5545 25.8373 12.5971 25.8843 12.6619C26.1415 13.0184 26.3916 13.3794 26.6462 13.7377C26.6799 13.7856 26.6799 13.8202 26.6444 13.8708C26.3845 14.2433 26.1309 14.6203 25.8701 14.991C25.8337 15.0425 25.8435 15.0673 25.8745 15.1099C26.1566 15.493 26.4369 15.878 26.7163 16.2629C26.7322 16.2851 26.7438 16.3108 26.765 16.3463H26.491C26.0368 16.3463 25.5818 16.3427 25.1277 16.3489C25.0284 16.3507 24.976 16.3108 24.9237 16.2363C24.6461 15.8425 24.364 15.4522 24.0829 15.0602L24.0847 15.0611Z" fill="#FF5533"/>
<path d="M20.2584 1.65723H14.5916V0.156494H20.2584V1.65723Z" fill="#FF5533"/>
<path d="M18.2618 4.64806H16.6103V2.26392H18.2618V4.64806Z" fill="#FF5533"/>
<path d="M18.2636 5.25366V7.63603H16.6121V5.25366H18.2636Z" fill="#FF5533"/>
<path d="M11.262 9.7623C11.3037 10.2696 10.8415 10.6838 10.3519 10.6599C9.81445 10.6333 9.49603 10.251 9.49603 9.77028C9.49603 9.25673 9.83751 8.88687 10.3998 8.88599C10.9054 8.88599 11.2957 9.3135 11.2611 9.76141L11.262 9.7623Z" fill="#FF5634"/>
<path d="M8.81222 12.235C8.26585 12.2297 7.90043 11.8039 7.943 11.293C7.98824 10.7422 8.32705 10.4611 8.8273 10.4699C9.35858 10.4797 9.72845 10.8371 9.70716 11.4048C9.68942 11.8784 9.28053 12.2598 8.81222 12.235Z" fill="#FF5634"/>
<path d="M5.51819 22.6355C5.51223 22.6423 5.50627 22.6491 5.50116 22.6559C5.50712 22.6491 5.51308 22.6423 5.51819 22.6355Z" fill="#FF5C3C"/>
<path d="M4.96276 23.3284C4.95509 23.3335 4.94742 23.3386 4.93976 23.3428C4.94742 23.3377 4.95509 23.3326 4.96276 23.3284Z" fill="#FF5A39"/>
<path d="M4.89616 23.3726C4.8885 23.3777 4.88083 23.3828 4.87231 23.3879C4.87998 23.3828 4.88765 23.3777 4.89616 23.3726Z" fill="#FF5A39"/>
<path d="M4.78539 23.4409C4.77772 23.4452 4.77006 23.4494 4.76324 23.4537C4.77091 23.4494 4.77858 23.4452 4.78539 23.4409Z" fill="#FF5A39"/>
<path d="M21.9445 23.5181V19.0478C21.9737 19.0452 22.0021 19.0399 22.0305 19.0399C22.3409 19.0399 22.6514 19.0328 22.9609 19.0452C23.5153 19.0665 23.9969 19.266 24.3712 19.6829C24.6497 19.9925 24.8324 20.3579 24.8954 20.7703C24.9317 21.0116 24.9566 21.2608 24.9379 21.5021C24.8998 21.9899 24.7481 22.4422 24.4164 22.8201C24.012 23.2822 23.4957 23.4995 22.8908 23.5172C22.5777 23.5261 22.2646 23.519 21.9445 23.519V23.5181Z" fill="white"/>
</svg>
