<?xml version="1.0" encoding="UTF-8"?>
<svg id="Layer_1" data-name="Layer 1" xmlns="http://www.w3.org/2000/svg" viewBox="0 0 25 25">
  <defs>
    <style>
      .cls-1 {
        fill: #fff;
      }
    </style>
  </defs>
  <path class="cls-1" d="m7.4,11.54h-2.34v.69h1.66c-.08.97-.89,1.39-1.66,1.39-1.01,0-1.83-.81-1.83-1.82,0-.01,0-.02,0-.03,0-1.05.81-1.86,1.83-1.86.79,0,1.25.5,1.25.5l.49-.5s-.62-.69-1.76-.69c-1.45,0-2.57,1.22-2.57,2.54s1.05,2.56,2.61,2.56c1.37,0,2.37-.94,2.37-2.32,0-.29-.04-.46-.04-.46h0Z"/>
  <path id="A" class="cls-1" d="m9.32,11.03c-.96,0-1.65.75-1.65,1.63s.67,1.65,1.66,1.65c.9,0,1.63-.69,1.63-1.63,0-1.08-.86-1.65-1.65-1.65h0Zm0,.64c.47,0,.92.38.92,1s-.45.99-.92.99c-.52,0-.93-.42-.93-1s.41-.99.94-.99h0Z"/>
  <path id="A-2" data-name="A" class="cls-1" d="m12.91,11.03c-.96,0-1.65.75-1.65,1.63s.67,1.65,1.66,1.65c.9,0,1.63-.69,1.63-1.63,0-1.08-.86-1.65-1.65-1.65h0Zm0,.64c.47,0,.92.38.92,1s-.45.99-.92.99c-.52,0-.93-.42-.93-1s.41-.99.94-.99h0Z"/>
  <path class="cls-1" d="m16.42,11.03c-.88,0-1.57.77-1.57,1.64,0,.99.8,1.64,1.56,1.64.47,0,.72-.19.9-.4v.32c0,.57-.34.9-.86.9s-.75-.37-.84-.58l-.63.26c.22.47.67.97,1.48.97.88,0,1.54-.55,1.54-1.71v-2.94h-.68v.28c-.21-.23-.5-.38-.88-.38h0Zm.06.64c.43,0,.88.37.88,1s-.44.99-.89.99c-.47,0-.91-.38-.91-.99s.45-1.01.92-1.01h0Z"/>
  <path class="cls-1" d="m21.05,11.03c-.83,0-1.53.66-1.53,1.64,0,1.03.78,1.65,1.61,1.65.69,0,1.12-.38,1.37-.72l-.57-.38c-.15.23-.39.45-.8.45-.46,0-.67-.25-.8-.5l2.2-.91-.11-.27c-.21-.52-.71-.96-1.36-.96h0Zm.03.63c.3,0,.52.16.61.35l-1.47.61c-.06-.48.39-.96.86-.96h0Z"/>
  <path class="cls-1" d="m18.47,14.22h.72v-4.83h-.72v4.83Z"/>
</svg>