<svg width="51" height="16" viewBox="0 0 51 16" fill="none" xmlns="http://www.w3.org/2000/svg">
<g clip-path="url(#clip0_1755_4543)">
<path d="M49.4114 9.77839L50.8263 10.6802C50.3671 11.3269 49.2688 12.4364 47.3699 12.4364C45.012 12.4364 43.256 10.6921 43.256 8.47315C43.256 6.11191 45.0306 4.51001 47.1714 4.51001C49.3246 4.51001 50.3794 6.14744 50.7208 7.03144L50.907 7.48239L45.3595 9.67753C45.7815 10.4726 46.4393 10.876 47.3699 10.876C48.3008 10.876 48.9461 10.437 49.4114 9.77839ZM45.0617 8.34868L48.7662 6.87725C48.5614 6.38487 47.9534 6.03487 47.2272 6.03487C46.3027 6.03487 45.0183 6.81801 45.0617 8.34868Z" fill="#FF302F"/>
<path d="M40.5815 0.469578H42.3685V12.0743H40.5815V0.469482V0.469578Z" fill="#20B15A"/>
<path d="M37.7644 4.81829H39.4894V11.8666C39.4894 14.7914 37.6837 15.9958 35.5491 15.9958C33.5387 15.9958 32.3287 14.7025 31.8757 13.6524L33.458 13.0234C33.7434 13.6701 34.4322 14.4355 35.5491 14.4355C36.9204 14.4355 37.7644 13.6227 37.7644 12.1039V11.5344H37.7024C37.2928 12.009 36.5109 12.4361 35.5181 12.4361C33.4455 12.4361 31.5467 10.7096 31.5467 8.48486C31.5467 6.2481 33.4455 4.50391 35.5181 4.50391C36.5047 4.50391 37.2928 4.92514 37.7024 5.38791H37.7644V4.81838V4.81829ZM37.8884 8.48486C37.8884 7.08467 36.9142 6.06419 35.6732 6.06419C34.4197 6.06419 33.3649 7.08467 33.3649 8.48486C33.3649 9.86714 34.4197 10.8698 35.6732 10.8698C36.9143 10.8758 37.8885 9.86714 37.8885 8.48486H37.8884Z" fill="#3686F7"/>
<path d="M21.7364 8.45513C21.7364 10.7393 19.8749 12.4183 17.5913 12.4183C15.3079 12.4183 13.4463 10.7334 13.4463 8.45513C13.4463 6.15913 15.3079 4.48608 17.5913 4.48608C19.8749 4.48608 21.7364 6.15913 21.7364 8.45513ZM19.9245 8.45513C19.9245 7.03132 18.8447 6.05227 17.5913 6.05227C16.3379 6.05227 15.2582 7.03132 15.2582 8.45513C15.2582 9.86713 16.3379 10.858 17.5913 10.858C18.8448 10.858 19.9245 9.86713 19.9245 8.45513Z" fill="#FF302F"/>
<path d="M30.7898 8.47315C30.7898 10.7573 28.9282 12.4363 26.6447 12.4363C24.3612 12.4363 22.4997 10.7572 22.4997 8.47315C22.4997 6.17715 24.3612 4.51001 26.6447 4.51001C28.9282 4.51001 30.7898 6.17125 30.7898 8.47315ZM28.9716 8.47315C28.9716 7.04934 27.8919 6.0703 26.6385 6.0703C25.3851 6.0703 24.3053 7.04934 24.3053 8.47315C24.3053 9.88515 25.3851 10.876 26.6385 10.876C27.8981 10.876 28.9716 9.87925 28.9716 8.47315Z" fill="#FFBA40"/>
<path d="M6.63297 10.698C4.03297 10.698 1.99775 8.69266 1.99775 6.20675C1.99775 3.72094 4.03297 1.71561 6.63297 1.71561C8.03537 1.71561 9.05916 2.24361 9.81619 2.91999L11.0635 1.72752C10.0086 0.760468 8.60006 0.0246582 6.63297 0.0246582C3.07124 0.0247534 0.0740967 2.80142 0.0740967 6.20675C0.0740967 9.61228 3.07124 12.3888 6.63297 12.3888C8.55663 12.3888 10.0086 11.7837 11.1442 10.6565C12.3107 9.54104 12.6706 7.97475 12.6706 6.70513C12.6706 6.30761 12.621 5.89828 12.5651 5.59571H6.63297V7.24504H10.8587C10.7346 8.27742 10.3933 8.98342 9.8907 9.4639C9.28258 10.0513 8.32086 10.698 6.63297 10.698Z" fill="#3686F7"/>
</g>
<defs>
<clipPath id="clip0_1755_4543">
<rect width="51" height="16" fill="white"/>
</clipPath>
</defs>
</svg>
