<svg width="63" height="48" viewBox="0 0 63 48" fill="none" xmlns="http://www.w3.org/2000/svg">
<path d="M57.75 0.375H5.25C2.3625 0.375 0 2.7375 0 5.625V42.375C0 45.2625 2.3625 47.625 5.25 47.625H57.75C60.6375 47.625 62.9738 45.2625 62.9738 42.375L63 5.625C63 2.7375 60.6375 0.375 57.75 0.375ZM21 8.25C25.3575 8.25 28.875 11.7675 28.875 16.125C28.875 20.4825 25.3575 24 21 24C16.6425 24 13.125 20.4825 13.125 16.125C13.125 11.7675 16.6425 8.25 21 8.25ZM36.75 39.75H5.25V37.125C5.25 31.875 15.75 28.9875 21 28.9875C26.25 28.9875 36.75 31.875 36.75 37.125V39.75ZM46.8563 29.25H50.505C50.925 29.25 51.2925 29.4338 51.555 29.775L54.4425 33.5812C54.8363 34.1063 54.7838 34.8412 54.3113 35.2875L50.7412 38.8575C50.2687 39.33 49.4813 39.3825 48.9825 38.9625C45.9785 36.4092 43.8035 33.0187 42.735 29.2237C41.7551 25.8013 41.7551 22.1725 42.735 18.75C43.797 14.9521 45.9732 11.5599 48.9825 9.01125C49.5075 8.565 50.2687 8.64375 50.7412 9.11625L54.3113 12.6862C54.7838 13.1588 54.8363 13.8938 54.4425 14.3925L51.555 18.1987C51.4357 18.3649 51.2778 18.4995 51.0949 18.591C50.9119 18.6825 50.7095 18.728 50.505 18.7237H46.8563C46.2788 20.3775 45.9375 22.1362 45.9375 23.9737C45.9375 25.8112 46.2788 27.5963 46.8563 29.25Z" fill="white"/>
</svg>
