<svg width="31" height="29" viewBox="0 0 31 29" fill="none" xmlns="http://www.w3.org/2000/svg">
<path fill-rule="evenodd" clip-rule="evenodd" d="M30.2246 12.6062C30.2246 11.7327 29.8776 10.8949 29.2599 10.2772C28.6422 9.65951 27.8044 9.31249 26.9309 9.31249L15.154 9.31249L16.7458 7.94849C17.3659 7.41333 17.7569 6.66064 17.8384 5.84563C17.9198 5.03061 17.6854 4.21543 17.1834 3.56817C16.6815 2.92092 15.9503 2.49096 15.1407 2.36695C14.3311 2.24294 13.5047 2.43434 12.8321 2.90169L6.72816 7.17504C4.66666 8.41814 3.15386 9.91234 2.16961 11.7723C1.18381 13.6339 0.774608 15.7729 0.774608 18.225C0.774608 20.643 1.17141 23.2408 2.51991 25.2635C3.92421 27.3715 6.24766 28.6875 9.68711 28.6875C9.72852 28.6876 9.76991 28.6855 9.81111 28.6813L15.3059 28.6813C15.7385 28.6813 16.167 28.596 16.5667 28.4304C16.9664 28.2648 17.3296 28.022 17.6354 27.716C17.9413 27.41 18.1839 27.0467 18.3493 26.6469C18.5148 26.2471 18.5998 25.8187 18.5996 25.386L18.5996 24.8047C18.5996 24.6714 18.5903 24.5412 18.5717 24.4126C19.1036 24.386 19.6212 24.2307 20.0799 23.9601C20.5386 23.6895 20.9249 23.3117 21.2055 22.859C21.4861 22.4063 21.6527 21.8923 21.691 21.3611C21.7292 20.8299 21.6381 20.2973 21.4253 19.8091C22.1226 19.4617 22.6743 18.8783 22.9822 18.1626C23.2901 17.4469 23.3343 16.6452 23.107 15.9L26.9309 15.9C27.8044 15.9 28.6422 15.553 29.2599 14.9353C29.8776 14.3176 30.2246 13.4798 30.2246 12.6062ZM9.56776 26.3625C9.60741 26.3584 9.64724 26.3563 9.68711 26.3563L15.3059 26.3563C15.5628 26.3563 15.8092 26.2542 15.9909 26.0726C16.1725 25.8909 16.2746 25.6445 16.2746 25.3875L16.2746 24.8063C16.2746 24.7035 16.2338 24.605 16.1611 24.5323C16.0884 24.4596 15.9899 24.4188 15.8871 24.4188L15.1121 24.4188C14.8038 24.4188 14.5081 24.2963 14.2901 24.0783C14.0721 23.8603 13.9496 23.5646 13.9496 23.2563C13.9496 22.948 14.0721 22.6523 14.2901 22.4343C14.5081 22.2163 14.8038 22.0938 15.1121 22.0938L18.4074 22.0938C18.6637 22.0938 18.9095 21.992 19.0908 21.8107C19.272 21.6295 19.3738 21.3837 19.3738 21.1274C19.3738 20.8711 19.272 20.6252 19.0908 20.444C18.9095 20.2628 18.6637 20.1609 18.4074 20.1609L17.4402 20.1625C17.3972 20.1628 17.3543 20.1607 17.3116 20.1563L16.5071 20.1563C16.1988 20.1563 15.9031 20.0338 15.6851 19.8158C15.4671 19.5978 15.3446 19.3021 15.3446 18.9938C15.3446 18.6855 15.4671 18.3898 15.6851 18.1718C15.9031 17.9538 16.1988 17.8313 16.5071 17.8313L19.9559 17.8313C20.2128 17.8313 20.4592 17.7292 20.6409 17.5475C20.8225 17.3659 20.9246 17.1195 20.9246 16.8625C20.9246 16.6056 20.8225 16.3592 20.6409 16.1775C20.4592 15.9959 20.2128 15.8938 19.9559 15.8938L15.8871 15.8938C15.5788 15.8938 15.2831 15.7713 15.0651 15.5533C14.8471 15.3353 14.7246 15.0396 14.7246 14.7313C14.7246 14.423 14.8471 14.1273 15.0651 13.9093C15.2831 13.6913 15.5788 13.5688 15.8871 13.5688L19.9559 13.5688C20.0876 13.5688 20.2163 13.5765 20.3434 13.5905C20.4074 13.58 20.4722 13.5748 20.5371 13.575L26.9309 13.575C27.1878 13.575 27.4342 13.4729 27.6159 13.2912C27.7975 13.1096 27.8996 12.8632 27.8996 12.6062C27.8996 12.3493 27.7975 12.1029 27.6159 11.9212C27.4342 11.7396 27.1878 11.6375 26.9309 11.6375L11.9811 11.6375C11.6845 11.6302 11.4021 11.5093 11.1922 11.2996C11.0772 11.1858 10.9873 11.0493 10.9282 10.8987C10.8692 10.7481 10.8423 10.5868 10.8493 10.4252C10.8563 10.2636 10.897 10.1052 10.9689 9.96031C11.0408 9.8154 11.1422 9.68713 11.2666 9.58374L15.2346 6.18304C15.4041 6.03696 15.5111 5.83132 15.5333 5.60862C15.5556 5.38591 15.4914 5.16317 15.3541 4.98644C15.2168 4.80971 15.0168 4.69249 14.7955 4.65903C14.5742 4.62557 14.3485 4.67841 14.1651 4.80664L8.03791 9.09549C8.00996 9.11605 7.98099 9.13519 7.95111 9.15284C6.16086 10.2285 4.97511 11.4391 4.22336 12.8589C3.46541 14.2911 3.09961 16.0271 3.09961 18.225C3.09961 20.457 3.47781 22.5092 4.45431 23.9739C5.36106 25.3348 6.88161 26.333 9.56931 26.3609L9.56776 26.3625Z" fill="#2191FA"/>
<path fill-rule="evenodd" clip-rule="evenodd" d="M26.9312 6.98725C28.0103 6.98725 29.0453 7.41592 29.8083 8.17896C30.5713 8.942 31 9.9769 31 11.056C31 12.1351 30.5713 13.17 29.8083 13.933C29.0453 14.6961 28.0103 15.1248 26.9312 15.1248L24.0203 15.1248L24.025 15.3108C24.0256 15.9513 23.8747 16.5829 23.5846 17.154C23.2945 17.7251 22.8733 18.2195 22.3556 18.5968C22.484 19.1163 22.5087 19.6561 22.4283 20.1852C22.348 20.7143 22.1641 21.2224 21.8873 21.6804C21.6105 22.1385 21.2462 22.5375 20.8151 22.8546C20.384 23.1718 19.8947 23.4009 19.375 23.5289L19.375 23.8389C19.375 24.918 18.9463 25.9529 18.1833 26.7159C17.4203 27.4789 16.3853 27.9076 15.3062 27.9076L9.8487 27.9076C9.796 27.9123 9.7402 27.9138 9.6875 27.9138C6.0233 27.9138 3.441 26.494 1.8755 24.1442C0.402997 21.9339 -2.74463e-06 19.1548 -2.63623e-06 16.6748C-2.52538e-06 14.139 0.423149 11.8651 1.4849 9.8594L2.17 10.2221C1.1842 12.0837 0.774997 14.2227 0.774997 16.6748C0.774997 19.0928 1.1718 21.6906 2.5203 23.7133C3.9246 25.8213 6.24805 27.1373 9.6875 27.1373C9.72891 27.1374 9.77031 27.1354 9.8115 27.1311L15.3062 27.1311C15.7389 27.1311 16.1674 27.0458 16.5671 26.8802C16.9668 26.7146 17.33 26.4718 17.6358 26.1658C17.9417 25.8598 18.1843 25.4965 18.3497 25.0967C18.5152 24.6969 18.6002 24.2684 18.6 23.8358L18.6 23.2545C18.6 23.1212 18.5907 22.991 18.5721 22.8624C19.4156 22.8217 20.2112 22.4579 20.7936 21.8463C21.376 21.2347 21.7006 20.4224 21.7 19.5779C21.7 19.1083 21.6023 18.6634 21.4256 18.2604C22.1234 17.9129 22.6752 17.3293 22.9832 16.6133C23.2911 15.8972 23.3351 15.0952 23.1074 14.3498L26.9312 14.3498C27.8048 14.3498 28.6426 14.0027 29.2603 13.385C29.878 12.7673 30.225 11.9296 30.225 11.056C30.225 10.1824 29.878 9.34467 29.2603 8.72697C28.6426 8.10927 27.8048 7.76225 26.9312 7.76225L15.1543 7.76225L16.7462 6.39825C17.3663 5.8631 17.7573 5.1104 17.8388 4.29539C17.9202 3.48038 17.6858 2.66519 17.1838 2.01794C16.6819 1.37069 15.9507 0.940722 15.1411 0.816714C14.3315 0.692706 13.5051 0.884109 12.8324 1.35145L6.72855 5.6248C4.66705 6.8679 3.15425 8.3621 2.17 10.2221L1.4849 9.8594C2.54355 7.85835 4.1602 6.2727 6.3054 4.9738L12.3891 0.715953C13.2248 0.132164 14.253 -0.108029 15.2608 0.045072C16.2687 0.198173 17.1791 0.73285 17.8037 1.53848C18.4283 2.3441 18.7194 3.35902 18.6166 4.37323C18.5138 5.38744 18.0251 6.32333 17.2515 6.98725L26.9312 6.98725Z" fill="#2191FA"/>
</svg>
