<svg width="59" height="59" viewBox="0 0 59 59" fill="none" xmlns="http://www.w3.org/2000/svg">
<rect width="59" height="59" fill="white"/>
<rect width="35.0118" height="35.0113" transform="translate(11.9961 11.9944)" fill="white"/>
<path fill-rule="evenodd" clip-rule="evenodd" d="M46.3443 15.8592C46.5545 15.6492 46.7213 15.3999 46.8352 15.1255C46.9491 14.851 47.0078 14.5568 47.0079 14.2597C47.0081 13.9626 46.9498 13.6683 46.8362 13.3938C46.7227 13.1192 46.5562 12.8697 46.3462 12.6594C46.1363 12.4492 45.8869 12.2824 45.6125 12.1685C45.3381 12.0546 45.0439 11.9959 44.7468 11.9958C44.4496 11.9956 44.1554 12.0539 43.8808 12.1675C43.6062 12.281 43.3567 12.4475 43.1465 12.6575L29.5017 26.3022L15.8609 12.6575C15.4364 12.2329 14.8605 11.9944 14.2601 11.9944C13.6596 11.9944 13.0838 12.2329 12.6592 12.6575C12.2346 13.082 11.9961 13.6579 11.9961 14.2583C11.9961 14.8588 12.2346 15.4346 12.6592 15.8592L26.3039 29.5L12.6592 43.1408C12.449 43.351 12.2822 43.6006 12.1684 43.8753C12.0547 44.15 11.9961 44.4444 11.9961 44.7417C11.9961 45.039 12.0547 45.3334 12.1684 45.608C12.2822 45.8827 12.449 46.1323 12.6592 46.3425C13.0838 46.7671 13.6596 47.0056 14.2601 47.0056C14.5574 47.0056 14.8518 46.9471 15.1264 46.8333C15.4011 46.7195 15.6507 46.5528 15.8609 46.3425L29.5017 32.6978L43.1465 46.3425C43.571 46.7666 44.1467 47.0046 44.7468 47.0042C45.3468 47.0039 45.9222 46.7651 46.3462 46.3406C46.7703 45.916 47.0083 45.3403 47.0079 44.7403C47.0076 44.1402 46.7688 43.5649 46.3443 43.1408L32.6995 29.5L46.3443 15.8592Z" fill="#4F4F4F"/>
</svg>
