<svg width="64" height="60" viewBox="0 0 64 60" fill="none" xmlns="http://www.w3.org/2000/svg">
<path d="M31.8197 0.375252C31.8924 0.224061 32.1076 0.224061 32.1803 0.375252L41.4966 19.7676C41.5257 19.8283 41.5835 19.8702 41.6502 19.8792L62.9723 22.7469C63.1385 22.7693 63.205 22.9741 63.0837 23.0899L47.5194 37.9427C47.4707 37.9892 47.4486 38.0571 47.4607 38.1233L51.3222 59.288C51.3523 59.453 51.1781 59.5796 51.0305 59.4999L32.0949 49.2872C32.0357 49.2552 31.9643 49.2552 31.9051 49.2872L12.9695 59.4999C12.8219 59.5796 12.6477 59.453 12.6778 59.288L16.5393 38.1233C16.5514 38.0571 16.5293 37.9892 16.4806 37.9427L0.916313 23.0899C0.794967 22.9741 0.861493 22.7693 1.02773 22.7469L22.3498 19.8792C22.4165 19.8702 22.4743 19.8283 22.5034 19.7676L31.8197 0.375252Z" fill="#FF9921"/>
</svg>
