<svg width="14" height="14" viewBox="0 0 14 14" fill="none" xmlns="http://www.w3.org/2000/svg">
<path d="M12.175 13.225L7.975 9.025C7.6 9.325 7.16875 9.5625 6.68125 9.7375C6.19375 9.9125 5.675 10 5.125 10C3.7625 10 2.6095 9.52825 1.666 8.58475C0.722 7.64075 0.25 6.4875 0.25 5.125C0.25 3.7625 0.722 2.60925 1.666 1.66525C2.6095 0.72175 3.7625 0.25 5.125 0.25C6.4875 0.25 7.64075 0.72175 8.58475 1.66525C9.52825 2.60925 10 3.7625 10 5.125C10 5.675 9.9125 6.19375 9.7375 6.68125C9.5625 7.16875 9.325 7.6 9.025 7.975L13.2438 12.1937C13.3813 12.3312 13.45 12.5 13.45 12.7C13.45 12.9 13.375 13.075 13.225 13.225C13.0875 13.3625 12.9125 13.4312 12.7 13.4312C12.4875 13.4312 12.3125 13.3625 12.175 13.225ZM5.125 8.5C6.0625 8.5 6.8595 8.172 7.516 7.516C8.172 6.8595 8.5 6.0625 8.5 5.125C8.5 4.1875 8.172 3.3905 7.516 2.734C6.8595 2.078 6.0625 1.75 5.125 1.75C4.1875 1.75 3.3905 2.078 2.734 2.734C2.078 3.3905 1.75 4.1875 1.75 5.125C1.75 6.0625 2.078 6.8595 2.734 7.516C3.3905 8.172 4.1875 8.5 5.125 8.5Z" fill="#707070"/>
</svg>
