<svg width="18" height="18" viewBox="0 0 18 18" fill="none" xmlns="http://www.w3.org/2000/svg">
<path d="M9.14671 1.50118C5.00747 1.42777 1.58648 4.7277 1.50133 8.86695C1.41619 13.0062 4.69898 16.425 8.83822 16.4984C12.985 16.572 16.4135 13.2722 16.4986 9.13294C16.5837 4.9937 13.2935 1.57473 9.14671 1.50118ZM8.87657 14.9989C5.56217 14.9401 2.93288 12.2079 3.00106 8.89355C3.06924 5.57915 5.80897 2.94226 9.12336 3.00104C12.4378 3.05983 15.0671 5.79195 14.9989 9.10634C14.9307 12.4207 12.191 15.0576 8.87657 14.9989Z" fill="#4F4F4F"/>
<path d="M9.45207 5.25728L8.32727 5.23734L8.23472 9.73651L12.1229 12.1684L12.7043 11.256L9.37109 9.19407L9.45207 5.25728Z" fill="#4F4F4F"/>
</svg>
