<svg width="36" height="49" viewBox="0 0 36 49" fill="none" xmlns="http://www.w3.org/2000/svg">
<path d="M9.76183 1.198C11.0308 0.802202 12.3926 0.867958 13.6204 1.38432C14.8482 1.90069 15.8681 2.83651 16.5101 4.036L16.7247 4.483L18.6445 8.896C19.2272 10.2355 19.4163 11.7225 19.1884 13.1723C18.9605 14.6221 18.3256 15.9705 17.3627 17.05L16.977 17.446L13.9523 20.365C13.4071 20.899 13.816 22.966 15.788 26.5C17.5628 29.68 19.007 31.165 19.7175 31.246H19.8422L19.9959 31.216L25.9409 29.335C26.7399 29.0815 27.5926 29.0715 28.3969 29.3061C29.2013 29.5407 29.9233 30.0101 30.4765 30.658L30.7404 31.003L34.6757 36.643C35.447 37.7485 35.8313 39.0927 35.7654 40.4543C35.6995 41.8159 35.1874 43.1137 34.3132 44.134L33.9594 44.512L32.3876 46.054C30.9762 47.4368 29.2106 48.3712 27.3007 48.7461C25.3909 49.121 23.4171 48.9207 21.6141 48.169C16.0026 45.829 10.9044 40.483 6.27313 32.185C1.63313 23.866 -0.295367 16.615 0.565933 10.405C0.826566 8.5278 1.5738 6.75867 2.72827 5.28549C3.88275 3.81231 5.40136 2.69009 7.12283 2.038L7.68253 1.846L9.76183 1.198Z" fill="white"/>
</svg>
