<svg width="76" height="16" viewBox="0 0 76 16" fill="none" xmlns="http://www.w3.org/2000/svg">
<path d="M74.8675 10.6914C74.6339 10.6914 74.4443 10.8808 74.4443 11.1142C74.4443 11.3475 74.6339 11.537 74.8675 11.537C75.101 11.537 75.2907 11.3475 75.2907 11.1142C75.2907 10.8808 75.101 10.6914 74.8675 10.6914ZM74.8675 11.4699C74.6706 11.4699 74.5114 11.3099 74.5114 11.1142C74.5114 10.9175 74.6715 10.7584 74.8675 10.7584C75.0644 10.7584 75.2245 10.9184 75.2245 11.1142C75.2245 11.3099 75.0643 11.4699 74.8675 11.4699ZM75.0053 11.0417C75.0053 10.9649 74.9507 10.9193 74.8701 10.9193H74.735V11.3045H74.8012V11.1651H74.8737L74.9435 11.3045H75.0151L74.9381 11.1508C74.9793 11.132 75.0053 11.0945 75.0053 11.0417ZM74.8675 11.1052H74.8022V10.9774H74.8675C74.9122 10.9774 74.939 10.9997 74.939 11.0409C74.939 11.0829 74.9113 11.1052 74.8675 11.1052ZM23.8728 6.41246V5.38989H22.3034V11.4735H23.8728V7.82567C23.8728 7.1651 24.2969 6.84062 24.9582 6.84062H25.8171V5.38991H25.0834C24.509 5.38989 24.0097 5.68933 23.8728 6.41246ZM27.2872 2.98364C26.7504 2.98364 26.3388 3.40734 26.3388 3.94365C26.3388 4.46745 26.7504 4.89114 27.2872 4.89114C27.8241 4.89114 28.2357 4.46745 28.2357 3.94365C28.2356 3.40731 27.8241 2.98364 27.2872 2.98364ZM26.5043 11.4735H28.0701V5.38989H26.5043V11.4735ZM35.5288 8.43168C35.5288 10.1684 34.1195 11.5763 32.381 11.5763C31.6795 11.5763 31.0434 11.3466 30.5333 10.9586V13.2594H28.9675V5.38989H30.5333V5.90474C31.0434 5.51681 31.6795 5.28709 32.381 5.28709C34.1195 5.28709 35.5288 6.69492 35.5288 8.43168ZM33.9531 8.43168C33.9531 7.48867 33.1872 6.72351 32.2432 6.72351C31.2993 6.72351 30.5334 7.48867 30.5334 8.43168C30.5334 9.37471 31.2993 10.1398 32.2432 10.1398C33.1872 10.1398 33.9531 9.3756 33.9531 8.43168ZM62.7436 7.89806L61.83 7.64777C61.2288 7.49134 60.9952 7.30721 60.9952 6.9899C60.9952 6.68062 61.3245 6.46431 61.7951 6.46431C62.2434 6.46431 62.595 6.75749 62.595 7.1329V7.16775H64.0383V7.1329C64.0383 6.02897 63.1373 5.28707 61.7951 5.28707C60.4665 5.28707 59.501 6.02808 59.501 7.04975C59.501 7.8444 60.028 8.44327 60.9478 8.69176L61.8229 8.93043C62.4877 9.11456 62.7346 9.31838 62.7346 9.68397C62.7346 10.0692 62.3776 10.3284 61.8461 10.3284C61.2923 10.3284 60.9192 9.97802 60.9192 9.45781V9.42294H59.3874V9.45781C59.3874 10.7056 60.3931 11.578 61.8336 11.578C63.2214 11.578 64.2289 10.7262 64.2289 9.55346C64.2289 8.97781 63.9712 8.22521 62.7436 7.89806ZM41.0834 5.38989H42.6492V11.4735H41.0834V10.9586C40.5734 11.3465 39.9372 11.5763 39.2357 11.5763C37.4973 11.5763 36.088 10.1684 36.088 8.43166C36.088 6.69488 37.4973 5.28707 39.2357 5.28707C39.9372 5.28707 40.5734 5.51679 41.0834 5.90472V5.38989ZM41.0834 8.43168C41.0834 7.48777 40.3175 6.72351 39.3735 6.72351C38.4295 6.72351 37.6637 7.48867 37.6637 8.43168C37.6637 9.37471 38.4295 10.1398 39.3735 10.1398C40.3184 10.1398 41.0834 9.3756 41.0834 8.43168ZM48.3032 3.22498H49.869V11.4744H48.3032V10.9595C47.7931 11.3474 47.157 11.5772 46.4555 11.5772C44.717 11.5772 43.3077 10.1693 43.3077 8.43255C43.3077 6.69578 44.717 5.28797 46.4555 5.28797C47.157 5.28797 47.7931 5.51769 48.3032 5.90562V3.22498ZM48.3032 8.43168C48.3032 7.48867 47.5372 6.72351 46.5933 6.72351C45.6493 6.72351 44.8834 7.48867 44.8834 8.43168C44.8834 9.37471 45.6484 10.1398 46.5933 10.1398C47.5372 10.1398 48.3032 9.3756 48.3032 8.43168ZM57.1389 11.4735H58.7046V5.38989H57.1389V11.4735ZM57.9217 2.98364C57.3849 2.98364 56.9733 3.40734 56.9733 3.94365C56.9733 4.46745 57.3849 4.89114 57.9217 4.89114C58.4586 4.89114 58.8702 4.46745 58.8702 3.94365C58.8702 3.40731 58.4586 2.98364 57.9217 2.98364ZM70.9968 8.43168C70.9968 10.1684 69.5875 11.5763 67.849 11.5763C66.1105 11.5763 64.7013 10.1685 64.7013 8.43168C64.7013 6.6949 66.1105 5.28709 67.849 5.28709C69.5875 5.28709 70.9968 6.69492 70.9968 8.43168ZM69.5589 8.43168C69.5589 7.48867 68.793 6.72351 67.849 6.72351C66.905 6.72351 66.1392 7.48867 66.1392 8.43168C66.1392 9.37471 66.9042 10.1398 67.849 10.1398C68.793 10.1398 69.5589 9.3756 69.5589 8.43168ZM23.0711 3.22498H17.0646V4.62029H19.2881V11.4735H20.8486V4.62029H23.072V3.22498H23.0711ZM53.4471 9.80733L52.054 5.38991H50.4094L52.4987 11.4735H54.383L56.4848 5.38991H54.8402L53.4471 9.80733ZM73.2909 6.41246V5.38989H71.7215V11.4735H73.2909V7.82567C73.2909 7.1651 73.715 6.84062 74.3762 6.84062H75.2352V5.38991H74.5015C73.9271 5.38989 73.4287 5.68933 73.2909 6.41246Z" fill="white"/>
<path d="M8.00803 16C12.4307 16 16.0161 12.4183 16.0161 8C16.0161 3.58172 12.4307 0 8.00803 0C3.58532 0 0 3.58172 0 8C0 12.4183 3.58532 16 8.00803 16Z" fill="#34E0A1"/>
<path d="M12.9542 6.4392L13.9205 5.38891H11.7776C10.7048 4.65683 9.40915 4.23047 8.00796 4.23047C6.60855 4.23047 5.31655 4.65775 4.24553 5.38891H2.09723L3.06356 6.4392C2.47125 6.97908 2.09992 7.75674 2.09992 8.62021C2.09992 10.2497 3.42238 11.5708 5.05352 11.5708C5.82838 11.5708 6.53432 11.2723 7.06134 10.7842L8.00799 11.814L8.95463 10.7851C9.48165 11.2732 10.1867 11.5708 10.9616 11.5708C12.5927 11.5708 13.9169 10.2497 13.9169 8.62021C13.9178 7.75585 13.5465 6.9782 12.9542 6.4392ZM5.05439 10.6171C3.95025 10.6171 3.05553 9.72324 3.05553 8.62021C3.05553 7.51718 3.95028 6.62333 5.05439 6.62333C6.15851 6.62333 7.05326 7.51718 7.05326 8.62021C7.05326 9.72324 6.15851 10.6171 5.05439 10.6171ZM8.00886 8.56211C8.00886 7.24813 7.05238 6.12009 5.78988 5.6383C6.47257 5.35314 7.22148 5.19494 8.00796 5.19494C8.79445 5.19494 9.54424 5.35314 10.2269 5.6383C8.96536 6.12099 8.00886 7.24815 8.00886 8.56211ZM10.9625 10.6171C9.85832 10.6171 8.96357 9.72324 8.96357 8.62021C8.96357 7.51718 9.85832 6.62333 10.9625 6.62333C12.0666 6.62333 12.9613 7.51718 12.9613 8.62021C12.9613 9.72324 12.0666 10.6171 10.9625 10.6171ZM10.9625 7.57259C10.3835 7.57259 9.91468 8.04098 9.91468 8.61931C9.91468 9.19763 10.3835 9.66601 10.9625 9.66601C11.5414 9.66601 12.0102 9.19763 12.0102 8.61931C12.0102 8.04188 11.5414 7.57259 10.9625 7.57259ZM6.10214 8.62021C6.10214 9.19852 5.63329 9.66691 5.05439 9.66691C4.4755 9.66691 4.00664 9.19852 4.00664 8.62021C4.00664 8.04188 4.4755 7.57349 5.05439 7.57349C5.63329 7.57259 6.10214 8.04188 6.10214 8.62021Z" fill="black"/>
</svg>
