<?xml version="1.0" encoding="UTF-8"?>
<svg id="Layer_1" data-name="Layer 1" xmlns="http://www.w3.org/2000/svg" viewBox="0 0 25 25">
  <defs>
    <style>
      .cls-1 {
        fill: #fff;
      }
    </style>
  </defs>
  <path class="cls-1" d="m24.86,13.38c-.08,0-.14.06-.14.14s.06.14.14.14.14-.06.14-.14c0-.08-.06-.14-.14-.14Zm0,.27c-.07,0-.12-.05-.12-.12s.05-.12.12-.12.12.05.12.12-.05.12-.12.12Zm.05-.15s-.02-.04-.05-.04h-.05v.13h.02v-.05h.02l.02.05h.02l-.03-.05s.02-.02.02-.04Zm-.05.02h-.02v-.04h.02s.02,0,.02.02c0,.01,0,.02-.02.02Zm-17.45-1.61v-.35h-.54v2.08h.54v-1.25c0-.23.15-.34.37-.34h.29v-.5h-.25c-.2,0-.37.1-.41.35Zm1.17-1.17c-.18,0-.32.15-.32.33s.14.32.32.32.32-.15.32-.32c0-.18-.14-.33-.32-.33Zm-.27,2.91h.54v-2.08h-.54v2.08Zm3.09-1.04c0,.6-.48,1.08-1.08,1.08-.24,0-.46-.08-.63-.21v.79h-.54v-2.7h.54v.18c.17-.13.39-.21.63-.21.6,0,1.08.48,1.08,1.08Zm-.54,0c0-.32-.26-.59-.59-.59s-.59.26-.59.59.26.59.59.59.59-.26.59-.59Zm9.85-.18l-.31-.09c-.21-.05-.29-.12-.29-.23s.11-.18.27-.18.27.1.27.23h0s.49.01.49.01h0c0-.39-.31-.64-.77-.64s-.79.25-.79.6c0,.27.18.48.5.56l.3.08c.23.06.31.13.31.26,0,.13-.12.22-.3.22s-.32-.12-.32-.3h0s-.52-.01-.52-.01h0c0,.44.34.74.84.74s.82-.29.82-.69c0-.2-.09-.46-.51-.57Zm-7.41-.86h.54v2.08h-.54v-.18c-.17.13-.39.21-.63.21-.59,0-1.08-.48-1.08-1.08s.48-1.08,1.08-1.08c.24,0,.46.08.63.21v-.18Zm0,1.04h0c0-.32-.26-.59-.59-.59s-.59.26-.59.59.26.59.59.59.59-.26.59-.59Zm2.47-1.78h.54v2.83h-.54v-.18c-.17.13-.39.21-.63.21-.6,0-1.08-.48-1.08-1.08s.48-1.08,1.08-1.08c.24,0,.46.08.63.21v-.92Zm0,1.78c0-.32-.26-.59-.59-.59s-.59.26-.59.59.26.59.59.59.59-.26.59-.59Zm3.02,1.04h.54v-2.08h-.54v2.08Zm.27-2.91c-.18,0-.32.15-.32.33s.14.32.32.32.32-.15.32-.32-.14-.33-.32-.33Zm4.47,1.87c0,.6-.48,1.08-1.08,1.08s-1.08-.48-1.08-1.08.48-1.08,1.08-1.08,1.08.48,1.08,1.08Zm-.49,0c0-.32-.26-.59-.59-.59s-.59.26-.59.59.26.59.59.59.59-.26.59-.59Zm-15.91-1.78h-2.06v.48h.76v2.35h.53v-2.35h.76v-.48h0Zm10.4,2.26l-.48-1.51h-.56l.72,2.08h.64l.72-2.08h-.56l-.48,1.51Zm6.79-1.16v-.35h-.54v2.08h.54v-1.25c0-.23.15-.34.37-.34h.29v-.5h-.25c-.2,0-.37.1-.41.35Z"/>
  <path class="cls-1" d="m3.67,11.92l.33-.36h-.73c-.37-.25-.81-.4-1.29-.4s-.92.15-1.29.4H-.05l.33.36c-.2.18-.33.45-.33.75,0,.56.45,1.01,1.01,1.01.27,0,.51-.1.69-.27l.32.35.32-.35c.18.17.42.27.69.27.56,0,1.01-.45,1.01-1.01,0-.3-.13-.56-.33-.75Zm-2.7,1.43c-.38,0-.68-.31-.68-.68s.31-.68.68-.68.68.31.68.68-.31.68-.68.68Zm1.01-.7c0-.45-.33-.84-.76-1,.23-.1.49-.15.76-.15s.53.05.76.15c-.43.17-.76.55-.76,1Zm1.01.7c-.38,0-.68-.31-.68-.68s.31-.68.68-.68.68.31.68.68-.31.68-.68.68Zm0-1.04c-.2,0-.36.16-.36.36s.16.36.36.36.36-.16.36-.36c0-.2-.16-.36-.36-.36Zm-1.66.36c0,.2-.16.36-.36.36s-.36-.16-.36-.36.16-.36.36-.36c.2,0,.36.16.36.36Z"/>
</svg>