<svg width="49" height="31" viewBox="0 0 49 31" fill="none" xmlns="http://www.w3.org/2000/svg">
<path d="M33.4091 13.2857C37.1064 13.2857 40.0686 10.3186 40.0686 6.64286C40.0686 2.96714 37.1064 0 33.4091 0C29.7118 0 26.7273 2.96714 26.7273 6.64286C26.7273 10.3186 29.7118 13.2857 33.4091 13.2857ZM15.5909 13.2857C19.2882 13.2857 22.2505 10.3186 22.2505 6.64286C22.2505 2.96714 19.2882 0 15.5909 0C11.8936 0 8.90909 2.96714 8.90909 6.64286C8.90909 10.3186 11.8936 13.2857 15.5909 13.2857ZM15.5909 17.7143C10.4014 17.7143 0 20.305 0 25.4643V28.7857C0 30.0036 1.00227 31 2.22727 31H28.9545C30.1795 31 31.1818 30.0036 31.1818 28.7857V25.4643C31.1818 20.305 20.7805 17.7143 15.5909 17.7143ZM33.4091 17.7143C32.7632 17.7143 32.0282 17.7586 31.2486 17.825C31.2932 17.8471 31.3155 17.8914 31.3377 17.9136C33.8768 19.7514 35.6364 22.2093 35.6364 25.4643V28.7857C35.6364 29.5607 35.4805 30.3136 35.2355 31H46.7727C47.9977 31 49 30.0036 49 28.7857V25.4643C49 20.305 38.5986 17.7143 33.4091 17.7143Z" fill="white"/>
</svg>
