<svg width="64" height="16" viewBox="0 0 64 16" fill="none" xmlns="http://www.w3.org/2000/svg">
<g clip-path="url(#clip0_1749_4118)">
<path d="M37.2204 9.44392C37.2391 8.39439 37.3883 7.37617 37.8134 6.42837C38.2206 5.5197 38.7931 4.75187 39.5388 4.13957C40.3765 3.45097 41.3446 3.12819 42.3573 2.93745C43.7862 2.66847 45.1651 2.90909 46.4699 3.5615C47.7175 4.18554 48.5865 5.22626 49.1054 6.62106C49.3438 7.26271 49.501 7.92587 49.5564 8.60665C49.6305 9.51923 49.5858 10.423 49.3643 11.3268C49.1045 12.389 48.599 13.2821 47.9631 14.0988C47.588 14.582 47.0968 14.9165 46.5726 15.1972C45.4509 15.7978 44.264 16.0521 43.0244 15.9915C42.0456 15.9445 41.0909 15.7323 40.2175 15.2295C39.6067 14.8784 39.0592 14.4128 38.6109 13.8376C38.1492 13.2459 37.8143 12.5661 37.5749 11.8315C37.3222 11.0578 37.2356 10.2567 37.2195 9.44392H37.2204ZM45.6081 8.95192C45.5965 8.95192 45.5849 8.95192 45.5724 8.95094C45.5554 8.33375 45.5438 7.71753 45.5188 7.10132C45.4893 6.37946 45.3625 5.67522 45.1651 4.98564C45.0321 4.52005 44.774 4.17771 44.3757 3.95861C43.8309 3.65931 43.2611 3.66909 42.6913 3.82852C42.2323 3.95666 41.8822 4.25987 41.7214 4.76067C41.5982 5.1441 41.4544 5.53437 41.4142 5.93246C41.3187 6.89396 41.2347 7.86034 41.2294 8.82574C41.2231 10.0171 41.2883 11.2104 41.3499 12.4018C41.383 13.0434 41.5223 13.6665 41.834 14.226C41.984 14.4949 42.1832 14.7121 42.4511 14.8529C42.9101 15.0935 43.3933 15.1043 43.8791 15.0251C44.4266 14.9361 44.824 14.6104 45.0749 14.0626C45.3571 13.4474 45.4795 12.7901 45.509 12.1142C45.5554 11.0608 45.575 10.0063 45.6063 8.95192H45.6081Z" fill="#186B6D"/>
<path d="M25.0354 15.6685C24.913 15.1931 24.7898 14.7099 24.6657 14.2268C24.6389 14.2072 24.6112 14.1867 24.5844 14.1671C24.5638 14.2209 24.5513 14.2806 24.5228 14.3285C23.9485 15.2792 23.0706 15.6754 22.0981 15.8954C21.4113 16.051 20.7326 16.0402 20.0699 15.7644C18.9366 15.2919 18.2463 14.4312 18.0953 13.0941C18.0328 12.5385 18.0525 11.9917 18.198 11.4518C18.4124 10.6576 18.8678 10.0834 19.5296 9.68534C20.5495 9.07206 21.6587 8.74634 22.784 8.46953C23.3189 8.33846 23.8521 8.19566 24.387 8.06166C24.4522 8.04503 24.521 8.0509 24.5799 8.04601C24.5799 7.23514 24.5897 6.43504 24.5755 5.63592C24.5692 5.31607 24.5299 4.99231 24.4701 4.67833C24.3674 4.13939 23.9575 3.8215 23.4404 3.7364C22.9242 3.65131 22.4812 3.83715 22.0356 4.05136C21.2791 4.41522 20.5745 4.88276 19.8859 5.37965C19.56 5.61537 19.2367 5.85599 18.9036 6.07998C18.8393 6.12302 18.7285 6.12498 18.6553 6.09661C18.616 6.08096 18.5901 5.95967 18.5946 5.88925C18.6356 5.21239 18.6848 4.53651 18.7321 3.85378C19.8743 3.49872 21.0371 3.22778 22.216 3.02531C22.9608 2.89815 23.7056 2.82479 24.4585 2.86783C25.1158 2.905 25.7632 3.01357 26.3777 3.28158C26.7938 3.46351 27.1546 3.74227 27.4735 4.09048C27.8566 4.51108 28.0173 5.0285 28.0584 5.59972C28.0825 5.93815 28.0906 6.27854 28.0915 6.61893C28.095 9.58948 28.095 12.56 28.0968 15.5306C28.0968 15.6186 28.0995 15.6881 27.9861 15.6881C27.0171 15.6842 26.0481 15.6842 25.0791 15.6832C25.0693 15.6832 25.0595 15.6763 25.0363 15.6675L25.0354 15.6685ZM24.5808 8.93707C24.5201 8.93707 24.4826 8.93218 24.4469 8.93707C23.7261 9.06032 23.0438 9.30974 22.3901 9.66088C22.0963 9.81836 21.9248 10.0864 21.7775 10.3818C21.7203 10.4962 21.6676 10.6224 21.648 10.7495C21.5444 11.4176 21.514 12.0886 21.6105 12.7615C21.6712 13.187 21.7542 13.5998 22.0534 13.9177C22.2794 14.1573 22.5518 14.2365 22.859 14.2639C23.4261 14.3148 23.9503 14.2052 24.4308 13.8619C24.5406 13.7837 24.5835 13.6937 24.5835 13.5499C24.579 12.1081 24.5808 10.6654 24.5808 9.22366C24.5808 9.1327 24.5808 9.04173 24.5808 8.9361V8.93707Z" fill="#186B6D"/>
<path d="M30.8039 4.16191H29.2883V3.11043H30.8101C30.8601 2.06384 30.9084 1.03681 30.9575 0H34.4083V3.10847C34.4914 3.10847 34.553 3.10847 34.6146 3.10847C35.4353 3.10847 36.2561 3.1114 37.0768 3.10554C37.2081 3.10554 37.2536 3.14368 37.2474 3.2904C37.2375 3.532 37.2411 3.77457 37.25 4.01714C37.2545 4.13843 37.2188 4.1756 37.1063 4.17462C36.2802 4.16875 35.4541 4.16973 34.6289 4.16777C34.4163 4.16777 34.4154 4.16582 34.4154 4.38981C34.4154 7.1931 34.4012 9.9964 34.4226 12.7997C34.4306 13.8991 35.1174 14.5094 36.131 14.442C36.5079 14.4165 36.8401 14.2884 37.1563 14.0791C37.2009 14.0497 37.3126 14.0468 37.3286 14.0752C37.367 14.1427 37.4063 14.263 37.376 14.3158C37.2456 14.5447 37.1081 14.7745 36.941 14.9721C36.4579 15.5443 35.8113 15.7575 35.1379 15.8925C34.5762 16.006 33.9966 16.0255 33.4465 15.9179C32.114 15.6558 31.1745 14.8978 30.9101 13.3005C30.8441 12.9004 30.8137 12.4887 30.8128 12.0818C30.8048 9.46919 30.8092 6.85565 30.8092 4.24309C30.8092 4.22059 30.8065 4.19907 30.8048 4.16484L30.8039 4.16191Z" fill="#186B6D"/>
<path d="M51.0908 3.10754C51.1471 3.10754 51.1935 3.10754 51.24 3.10754C52.2777 3.10754 53.3155 3.11048 54.3532 3.10461C54.4916 3.10461 54.5327 3.14569 54.5381 3.2973C54.5577 3.92525 54.5899 4.55223 54.6176 5.18018C54.6193 5.21246 54.6256 5.24376 54.6354 5.31223C54.7426 5.10976 54.8221 4.9288 54.9275 4.76839C55.4963 3.89982 56.1822 3.19459 57.1682 2.92561C57.6808 2.78574 58.1747 2.89235 58.6596 3.0782C58.7543 3.11439 58.8391 3.18873 58.9355 3.20731C59.1302 3.24448 59.141 3.37261 59.1392 3.55161C59.132 4.57277 59.1356 5.59393 59.1356 6.61508C59.1356 6.87722 59.0177 6.9721 58.7935 6.86451C58.4113 6.68062 58.0434 6.46152 57.6567 6.29328C57.0735 6.03995 56.4841 5.79933 55.8866 5.58903C55.4954 5.45112 55.09 5.546 54.6944 5.62425C54.6729 5.62816 54.6497 5.69076 54.647 5.72695C54.6426 5.80129 54.6551 5.87562 54.6551 5.95094C54.6568 9.14059 54.6569 12.3312 54.6595 15.5209C54.6595 15.6255 54.6568 15.694 54.53 15.693C53.4074 15.6881 52.2849 15.6901 51.1623 15.6891C51.1417 15.6891 51.1221 15.6832 51.0917 15.6793V3.10754H51.0908Z" fill="#186B6D"/>
<path d="M12.8049 3.11621H16.3576V15.6782H12.8049V3.11621Z" fill="#186B6D"/>
<path d="M0.00089309 3.12516C0.20362 3.12516 0.386699 3.12516 0.569778 3.12516C1.5593 3.12027 2.54971 3.12027 3.53924 3.10462C3.72678 3.10168 3.82055 3.14863 3.90182 3.34915C4.68594 5.28094 5.48434 7.20588 6.27739 9.13278C6.77661 10.3456 7.27763 11.5575 7.7706 12.7743C7.80632 12.8624 7.81525 12.9954 7.78042 13.0805C7.45088 13.9031 7.10616 14.7179 6.77393 15.5385C6.72571 15.6568 6.67302 15.7018 6.55335 15.6989C6.14075 15.6901 5.72726 15.6921 5.31466 15.6979C5.19588 15.6999 5.13426 15.649 5.08693 15.5326C4.54573 14.1897 4.00453 12.8457 3.45529 11.5057C2.3711 8.86282 1.28245 6.22189 0.194689 3.58096C0.133067 3.43033 0.0669802 3.28166 0 3.12516H0.00089309Z" fill="#186B6D"/>
<path d="M11.2696 5.20369C11.2821 6.47133 10.331 7.56976 9.10477 7.56096C7.89288 7.55313 6.9239 6.43123 6.9364 5.2076C6.9489 3.91354 7.89556 2.86402 9.08066 2.86206C10.2881 2.86011 11.2651 3.90572 11.2687 5.20271L11.2696 5.20369Z" fill="#186B6D"/>
</g>
<defs>
<clipPath id="clip0_1749_4118">
<rect width="64" height="16" fill="white"/>
</clipPath>
</defs>
</svg>
