<?xml version="1.0" encoding="UTF-8"?>
<svg id="Layer_1" data-name="Layer 1" xmlns="http://www.w3.org/2000/svg" viewBox="0 0 25 25">
  <defs>
    <style>
      .cls-1 {
        fill: #fff;
      }

      .cls-2 {
        fill: none;
        stroke: #fff;
        stroke-miterlimit: 10;
        stroke-width: .1px;
      }
    </style>
  </defs>
  <g>
    <path class="cls-1" d="m22.35,14.75h0s0,0,0,0h0Zm-.03-.24c0-.06-.05-.09-.13-.09h-.1v.33h.06v-.15h.04l.07.11s.03.03.06.03h.02l-.1-.15s.07-.04.07-.09Zm-.13.08h-.04v-.15h.03c.06,0,.08.02.08.07s-.02.07-.07.07Zm.15.15h0s0,0,0,0h0Zm-.03-.24c0-.06-.05-.09-.13-.09h-.1v.33h.06v-.15h.04l.07.11s.03.03.06.03h.02l-.1-.15s.07-.04.07-.09Zm-.13.08h-.04v-.15h.03c.06,0,.08.02.08.07s-.02.07-.07.07Zm.15.15h0s0,0,0,0h0Zm-.03-.24c0-.06-.05-.09-.13-.09h-.1v.33h.06v-.15h.04l.07.11s.03.03.06.03h.02l-.1-.15s.07-.04.07-.09Zm-.13.08h-.04v-.15h.03c.06,0,.08.02.08.07s-.02.07-.07.07Z"/>
    <rect class="cls-1" x="6.81" y="10.97" width="1.21" height="3.95"/>
    <path class="cls-1" d="m14.67,14.53c-.36,0-.53-.21-.53-.58v-2.65h.97v-.33h-.97v-.99h-1.17l-.06.99h-.52v.33h.52v2.6c0,.67.38,1.11,1.17,1.11.59,0,.94-.24,1.08-.56l-.06-.06c-.13.09-.29.14-.45.14Z"/>
    <path class="cls-1" d="m17.22,10.89c-1.3,0-2.12.9-2.12,2.08s.77,2.04,2.09,2.04,2.12-.9,2.12-2.08c0-1.17-.81-2.04-2.09-2.04Zm0,3.84c-.65,0-.74-.53-.74-1.79s.09-1.78.73-1.78.74.54.74,1.8c0,1.24-.08,1.77-.73,1.77Z"/>
    <path class="cls-1" d="m21.01,11.65l-.03-.68h-1.18v3.95h1.22v-3.16h0c.07-.02.15-.03.23-.03.22,0,.47.09,1.23.45l.07-.03v-1.11c-.14-.1-.31-.15-.48-.15-.35,0-.74.22-1.06.77Z"/>
    <path class="cls-1" d="m10.83,14.45l.14.47h1.04v-3.04c0-.67-.53-1-1.39-1-.58,0-1.3.16-1.79.32l-.06.69.07.03c.93-.62,1.21-.77,1.49-.77.33,0,.46.17.46.53v.82c-1.38.28-2.21.49-2.21,1.43,0,.64.43,1.07,1.12,1.07.53,0,.92-.25,1.13-.56Zm-1.04-.73c0-.61.21-.76,1.02-.93v1.52c-.15.12-.33.18-.52.17-.35,0-.5-.2-.5-.76Z"/>
    <circle class="cls-1" cx="5.56" cy="11.63" r=".74"/>
    <polygon class="cls-1" points="4.74 14.93 5.13 14.06 3.76 10.97 2.45 10.97 4.21 14.93 4.74 14.93"/>
  </g>
  <circle class="cls-2" cx="22.21" cy="14.61" r=".3"/>
</svg>