<?xml version="1.0" encoding="UTF-8"?>
<svg id="Layer_3" data-name="Layer 3" xmlns="http://www.w3.org/2000/svg" viewBox="0 0 25 25">
  <defs>
    <style>
      .cls-1, .cls-2 {
        fill: #fff;
      }

      .cls-2 {
        fill-rule: evenodd;
      }
    </style>
  </defs>
  <path class="cls-1" d="m7.92,13.33h.61c.02.16.09.27.2.33.12.07.27.11.48.11.18,0,.31-.03.41-.09.09-.06.14-.14.14-.25,0-.17-.26-.31-.78-.41h-.02s-.07-.02-.07-.02c-.29-.06-.49-.12-.59-.18-.12-.06-.2-.14-.24-.25-.06-.09-.09-.22-.09-.36,0-.26.1-.46.29-.61.2-.14.48-.21.86-.21.35,0,.62.07.81.22.2.16.3.37.31.64h-.35c-.13,0-.23-.06-.29-.17-.03-.05-.07-.1-.12-.13-.1-.07-.25-.1-.42-.1s-.3.03-.37.09c-.09.06-.13.14-.13.25,0,.14.17.25.5.32.1.03.17.04.22.05.1.03.19.06.27.07.08.02.14.03.19.04.08.03.16.06.24.1.12.06.2.15.27.25.06.11.09.23.09.36,0,.28-.1.51-.31.66-.21.15-.5.22-.88.22-.39,0-.69-.08-.88-.23-.21-.15-.33-.38-.35-.68"/>
  <path class="cls-1" d="m12.07,13.52h.43c-.06.22-.18.39-.36.51-.18.12-.4.18-.68.18-.33,0-.58-.1-.77-.29-.18-.19-.28-.46-.28-.81s.09-.6.27-.79c.18-.2.44-.29.77-.29.35,0,.61.09.81.28.18.19.28.46.28.81v.09s0,.04,0,.05h-1.5c0,.17.05.29.13.37.08.09.19.13.34.13.1,0,.18-.02.25-.06.02,0,.03-.02.05-.03.01-.01.03-.03.05-.04,0-.02.03-.04.07-.07.04-.03.09-.04.16-.04m-1.04-.61h.88c-.01-.14-.05-.25-.12-.32-.07-.07-.18-.11-.32-.11-.13,0-.23.04-.31.11-.08.07-.12.18-.13.32"/>
  <path class="cls-1" d="m14.27,13.52h.43c-.06.22-.18.39-.36.51-.18.12-.4.18-.67.18-.33,0-.58-.1-.77-.29-.18-.19-.28-.46-.28-.81,0-.34.09-.6.27-.79.18-.19.44-.29.77-.29.34,0,.61.09.8.28.18.19.28.46.28.81v.09s0,.04,0,.05h-1.49c0,.17.05.29.13.37.07.09.19.13.34.13.1,0,.18-.02.25-.06.02,0,.03-.01.05-.03.01-.01.03-.03.05-.04,0-.02.03-.04.07-.06.04-.03.09-.04.16-.04m-1.03-.61h.88c-.01-.14-.05-.25-.12-.32-.07-.07-.18-.11-.32-.11-.13,0-.23.04-.31.11-.08.07-.12.18-.13.32"/>
  <path class="cls-1" d="m14.83,13.32h.6c.02.16.09.27.2.33.11.07.27.11.47.11.18,0,.31-.03.41-.09.09-.06.14-.14.14-.25,0-.17-.26-.31-.78-.41h-.02s-.07-.02-.07-.02c-.29-.06-.49-.12-.59-.18-.12-.06-.2-.14-.24-.25-.06-.09-.09-.22-.09-.36,0-.26.1-.46.29-.61.2-.14.48-.21.85-.21.35,0,.62.07.81.22.2.16.3.37.31.64h-.34c-.13,0-.23-.05-.29-.17-.03-.05-.07-.1-.12-.13-.1-.07-.24-.1-.42-.1s-.3.03-.37.09c-.09.06-.13.14-.13.24,0,.14.17.25.5.32.1.03.17.04.22.05.1.03.19.06.27.07.08.02.14.03.19.04.08.03.16.06.24.1.12.06.2.15.27.25.06.11.09.23.09.36,0,.29-.1.51-.31.66-.21.15-.5.22-.88.22-.39,0-.68-.08-.88-.23-.21-.15-.33-.38-.34-.68"/>
  <path class="cls-1" d="m17.42,11.45h.31c.08,0,.15.03.21.08.06.05.09.12.09.19v.17h-.6v-.44Zm0,.62h.31c.08,0,.15.03.21.08.06.05.09.12.09.19v1.83h-.6v-2.1Z"/>
  <path class="cls-1" d="m19.7,14.04v-.13c-.1.15-.24.24-.42.28-.18.04-.35.02-.52-.04-.17-.06-.32-.18-.44-.35-.12-.17-.18-.39-.18-.67,0-.33.08-.59.24-.79.16-.2.43-.3.79-.3.27,0,.53.07.77.2.24.14.35.39.35.76v1.11c0,.37-.12.62-.35.75-.24.13-.49.2-.77.2-.53,0-.86-.23-.98-.68h.63c.05.07.12.13.21.17.09.04.19.05.28.03.09-.02.18-.07.26-.15.08-.08.12-.21.13-.38m-.98-.91c0,.36.12.56.34.6.23.04.4,0,.51-.15.05-.06.09-.15.11-.27.02-.12.02-.25,0-.37-.02-.12-.07-.23-.14-.32-.07-.09-.18-.14-.33-.14-.2,0-.33.07-.4.2-.07.13-.1.28-.1.45"/>
  <path class="cls-1" d="m21.86,12.66c-.08-.11-.2-.17-.35-.17-.16,0-.28.05-.37.16-.08.11-.13.25-.13.43v1.08h-.58v-2.72h.29c.08,0,.15.03.2.08.06.05.08.12.08.19v.62c.1-.16.25-.26.43-.3.19-.04.36-.03.53.03.16.06.29.16.4.3.11.14.16.33.16.57v1.22h-.57v-1.09c0-.08,0-.15-.02-.22-.01-.07-.05-.13-.1-.2"/>
  <path class="cls-1" d="m23.65,14.16c-.19.01-.39,0-.61,0-.22-.02-.33-.14-.33-.39v-2.32s.31,0,.31,0c.07,0,.14.03.19.08.06.05.09.12.09.19v.35h.35v.11c0,.08-.03.14-.09.19-.06.05-.12.07-.2.07h-.06v1.17c0,.09.06.13.17.13h.18v.41Z"/>
  <path class="cls-1" d="m8.42,15.77v-.86h-.35v-.08s.01-.06.04-.08c.02-.02.05-.03.09-.03h.82v.18h-.35v.86h-.24Z"/>
  <path class="cls-1" d="m9.43,15.25c0-.17.05-.3.15-.4.11-.1.25-.15.42-.15.17,0,.31.05.42.15.1.1.16.24.16.4s-.05.3-.16.4c-.1.1-.25.15-.42.15s-.32-.05-.42-.15c-.1-.1-.15-.23-.15-.4m.24,0c0,.12.03.21.09.27.06.06.14.09.24.09.1,0,.18-.03.24-.09.06-.06.09-.15.09-.27s-.03-.2-.09-.27c-.06-.06-.14-.09-.24-.09s-.19.03-.24.09c-.06.06-.09.15-.09.27"/>
  <path class="cls-1" d="m11.27,14.73v.65c0,.08.02.14.05.18.04.04.09.05.17.05s.14-.02.18-.05c.04-.04.05-.1.05-.18v-.65h.24v.68c0,.13-.04.23-.12.29-.08.07-.19.1-.35.1s-.27-.03-.35-.1c-.08-.07-.12-.17-.12-.29v-.56s.01-.06.04-.08c.02-.02.05-.04.09-.04h.12Z"/>
  <path class="cls-1" d="m12.41,15.77v-.93s.01-.06.04-.08c.02-.02.05-.03.09-.03h.45c.13,0,.22.02.28.07.06.05.1.12.1.22,0,.07-.02.12-.05.16-.03.04-.07.07-.13.09.05.02.09.04.11.07.02.03.03.08.04.15v.12s0,.04,0,.04c0,.01,0,.03,0,.04,0,.04.02.06.04.07h-.27s-.02-.04-.02-.06c0-.03,0-.05,0-.07v-.11c0-.06-.02-.1-.04-.13-.02-.02-.07-.03-.13-.03h-.26v.41h-.24Zm.24-.59h.28c.06,0,.11-.01.14-.03.03-.02.04-.06.04-.1s-.01-.08-.04-.1c-.03-.02-.07-.04-.12-.04h-.3v.28Z"/>
  <path class="cls-1" d="m13.83,15.45h.24c0,.06.03.1.08.13.05.03.11.04.19.04.07,0,.12-.01.16-.03.04-.02.06-.05.06-.1,0-.06-.1-.12-.31-.16h0s-.03,0-.03,0c-.12-.02-.19-.05-.23-.07-.05-.02-.08-.05-.1-.1-.02-.04-.03-.08-.03-.14,0-.1.04-.18.12-.23.08-.06.19-.08.34-.08.14,0,.25.03.32.08.08.06.12.14.12.25h-.14c-.05,0-.09-.02-.11-.06-.01-.02-.03-.04-.05-.05-.04-.03-.1-.04-.17-.04s-.12.01-.15.03c-.03.02-.05.05-.05.09,0,.05.07.1.2.12.04.01.07.02.09.02.04.01.08.02.11.03.03,0,.06.01.07.02.03.01.06.02.1.04.05.02.08.06.11.09.03.04.04.09.04.14,0,.11-.04.19-.12.26-.08.06-.2.08-.35.08s-.27-.03-.35-.09c-.09-.06-.13-.15-.14-.26"/>
  <path class="cls-2" d="m3.4,15.23s0,0,0,0c-.32-1.41-.8-2.66-1.38-2.98.51.59.91,1.84,1.18,3,0,0-.02,0-.03,0,.08-.01.15-.02.23-.02"/>
  <path class="cls-2" d="m1.19,12.25c.68.1,1.24,1.48,1.6,3.07,0,0,0,0-.01,0,.06-.01.11-.03.17-.04-.39-1.69-1-3.15-1.75-3.03"/>
  <path class="cls-2" d="m1.05,11.99c.23-.15.45-.13.66-.02l.06-.05c.24-.15.47-.13.68,0l.04-.03s.02-.01.03-.02c-.16-.36-.39-.99-.39-.99,0,0-.34.56-.39.55-.07,0-1-.71-1-.71,0,0,.18.94.23,1.35l.08-.07Z"/>
  <path class="cls-2" d="m.97,12.23s0,.01,0,.01c-.04.09-.97-.16-.97-.16.62.51,1.22,1.16,1.59,1.59.04.05-1.25-.32-1.21-.27.26.3.41.56.5.75.05.12-.59.45-.88.57,0,0,1.12.19,1.49.5.12.1.23.42.19.56.13-.09.42-.21.44-.22.19-.08.38-.15.57-.2-.38-1.68-.97-3.16-1.72-3.12"/>
  <path class="cls-2" d="m2.7,12.14s.02.02.02.03c.65.2,1.18,1.56,1.52,3.11.05,0,.11.02.17.03,0,0,0,0,0,0-.37-1.7-.98-3.2-1.72-3.17"/>
  <path class="cls-2" d="m3.67,15.22c-.38-1.66-.98-3.1-1.71-3.04l.02.02c.65.16,1.18,1.49,1.53,3.02-.01,0-.02,0-.03,0,.07,0,.15,0,.22,0-.01,0-.02,0-.03,0"/>
  <path class="cls-2" d="m6.9,12.3s-.69-.1-.7-.17c-.02-.07.75-1.16.75-1.16,0,0-1.33.6-1.42.6-.07,0-.18-.59-.18-.59-.39.5-1.1,1.27-1.46,1.63,0,0,0,0,0,0,.28-.48.82-1.32,1.01-1.76,0,0-.61.09-.64.02-.04-.09-.05-1.67-.05-1.67,0,0-.7,1.18-.78,1.19-.07,0-.47-.66-.47-.66,0,0-.11.77-.23,1.47-.04.22-.07.42-.11.6.22-.08.43,0,.63.14l.14.14c.57.62,1,2.04,1.27,3.3.2.07.41.15.65.24,0,0-.02-.39.1-.54.18-.22.67-.45,1.24-.62,0,0-.77-.21-.82-.37-.02-.05.34-.57.34-.57,0,0-1.31.25-1.33.21-.03-.08,2.05-1.43,2.05-1.43"/>
  <path class="cls-2" d="m4.17,15.26s-.03,0-.04,0c-.31-1.41-.78-2.67-1.36-3.03.5.62.89,1.86,1.15,3.01.08,0,.16.02.25.03"/>
  <polygon class="cls-1" points="24.36 11.71 24.2 11.71 24.2 11.68 24.54 11.68 24.54 11.71 24.39 11.71 24.39 12.1 24.36 12.1 24.36 11.71"/>
  <polygon class="cls-1" points="24.97 11.73 24.81 11.97 24.8 11.97 24.63 11.73 24.63 12.1 24.6 12.1 24.6 11.68 24.64 11.68 24.8 11.93 24.96 11.68 25 11.68 25 12.1 24.97 12.1 24.97 11.73"/>
</svg>